<?xml version="1.0" standalone="no"?>
<!DOCTYPE svg PUBLIC "-//W3C//DTD SVG 1.1//EN" "http://www.w3.org/Graphics/SVG/1.1/DTD/svg11.dtd" >
<svg xmlns="http://www.w3.org/2000/svg" xmlns:xlink="http://www.w3.org/1999/xlink" version="1.1">
<metadata>
Created by FontForge 20230101 at Sun Aug 18 18:58:46 2019
 By Unknown
Copyright (c) 2017 by Ivan Rosenberg. All rights reserved.
</metadata>
<defs>
<font id="Francie-Serif" horiz-adv-x="600" >
  <font-face 
    font-family="Francie Serif"
    font-weight="400"
    font-stretch="normal"
    units-per-em="1000"
    panose-1="0 0 5 0 0 0 0 0 0 0"
    ascent="800"
    descent="-200"
    x-height="700"
    cap-height="700"
    bbox="-198 -300 1241 911"
    underline-thickness="50"
    underline-position="-100"
    unicode-range="U+0020-2212"
  />
<missing-glyph horiz-adv-x="585" 
d="M480 -300h-371v1170h371v-1170zM197 792v-39h76v-43h-78v-39h195v39h-78v43h78v39h-193zM195 641v-122h195v40h-78v82h-117zM273 559h-39v42h39v-42zM195 487v-38h78v-43h-78v-39h117v82h78v38h-195zM351 417v-77h-156v-40h195v117h-39zM273 274v-65h39v27h39v-55h-117
v93h-39v-132h195v132h-117zM195 72v-132h195v132h-195zM351 -22h-117v55h117v-55zM195 -87v-39h82l-82 -55v-38h195v38h-120l82 55h38v39h-195z" />
    <glyph glyph-name="l_l.liga" unicode="ll" horiz-adv-x="990" 
d="M398.5 25.5q41.5 9.5 46.5 23.5h5v-49h-7h-128h-255v4q13 5 16.5 39t3.5 90v432v1q0 56 -3.5 90.5t-16.5 38.5v5h81v-5q-12 -4 -15.5 -38.5t-3.5 -90.5v-1v-432q0 -43 1.5 -72t7.5 -45h184q42 0 83.5 9.5zM930 49v-49h-7h-128h-255v4q13 5 16.5 39t3.5 90v432v1
q0 56 -3.5 90.5t-16.5 38.5v5h81v-5q-12 -4 -15.5 -38.5t-3.5 -90.5v-1v-432q0 -43 1.5 -72t7.5 -45h184q42 0 83.5 9.5t46.5 23.5h5z" />
    <glyph glyph-name="t_t.liga" unicode="tt" horiz-adv-x="1116" 
d="M509 700v-43h-4q-5 14 -44 20t-86 6h-84v-550q0 -56 3 -90t16 -39v-4h-81v4q13 5 16.5 39t3.5 90v550h-74q-47 0 -86.5 -6t-44.5 -20h-4v43h14h441h14zM1076 700v-43h-4q-5 14 -44 20t-86 6h-84v-550q0 -56 3 -90t16 -39v-4h-81v4q13 5 16.5 39t3.5 90v550h-74
q-47 0 -86.5 -6t-44.5 -20h-4v43h14h441h14z" />
    <glyph glyph-name=".notdef" horiz-adv-x="585" 
d="M480 -300h-371v1170h371v-1170zM197 792v-39h76v-43h-78v-39h195v39h-78v43h78v39h-193zM195 641v-122h195v40h-78v82h-117zM273 559h-39v42h39v-42zM195 487v-38h78v-43h-78v-39h117v82h78v38h-195zM351 417v-77h-156v-40h195v117h-39zM273 274v-65h39v27h39v-55h-117
v93h-39v-132h195v132h-117zM195 72v-132h195v132h-195zM351 -22h-117v55h117v-55zM195 -87v-39h82l-82 -55v-38h195v38h-120l82 55h38v39h-195z" />
    <glyph glyph-name=".null" horiz-adv-x="0" 
 />
    <glyph glyph-name="nonmarkingreturn" horiz-adv-x="333" 
 />
    <glyph glyph-name="space" unicode=" " horiz-adv-x="280" 
 />
    <glyph glyph-name="exclam" unicode="!" horiz-adv-x="239" 
d="M105 487.5q-6 163.5 -14 212.5q11 11 31 11q19 0 27 -11q-8 -53 -14 -216.5t-9 -361.5h-12q-3 202 -9 365.5zM91.5 -4.5q-11.5 11.5 -11.5 28.5t11.5 28t28.5 11t28 -11t11 -28t-11 -28.5t-28 -11.5t-28.5 11.5z" />
    <glyph glyph-name="quotedbl" unicode="&#x22;" horiz-adv-x="150" 
d="M20 700h38l-13 -141h-12zM92 700h38l-13 -141h-12z" />
    <glyph glyph-name="numbersign" unicode="#" horiz-adv-x="632" 
d="M450 402l-31 -102l140 -1l-9 -29l-140 1l-51 -168h-30l51 168l-180 2l-51 -170h-30l52 170l-131 1l9 29l130 -1l31 102l-137 1l9 28l137 -1l48 159h30l-48 -159l179 -2l49 161h30l-49 -161l134 -1l-9 -28zM420 402l-180 2l-31 -102l180 -2z" />
    <glyph glyph-name="dollar" unicode="$" horiz-adv-x="481" 
d="M371 363q30 -26 50 -65t20 -93q0 -87 -49 -145t-122 -72v-38h-16v36q-8 -1 -24 -1v-35h-16v35q-51 4 -96 33.5t-78 78.5l23 13q27 -48 65.5 -76.5t85.5 -32.5v419q-54 39 -85.5 79.5t-31.5 87.5q0 48 32 83t85 43v53h16v-51q4 0 10 0.5t14 -0.5v51h16v-52q68 -8 128 -70
l-16 -12q-48 57 -112 66v-263l22 -14q49 -32 79 -58zM247 699q-11 0 -17 -1v-237q8 -6 24 -16v254h-7zM154 528.5q21 -29.5 60 -56.5v224q-36 -10 -58.5 -35t-22.5 -64t21 -68.5zM254 2v391l-24 16v-408q16 0 24 1zM387.5 272.5q-15.5 32.5 -42.5 56t-75 54.5v-378
q61 14 97 64t36 124q0 47 -15.5 79.5z" />
    <glyph glyph-name="percent" unicode="%" horiz-adv-x="686" 
d="M615 700h31l-575 -700h-31zM156 497.5q-30 30.5 -30 73.5t30 73.5t72 30.5q43 0 73 -30.5t30 -73.5t-30 -73.5t-73 -30.5q-42 0 -72 30.5zM284 508.5q21 25.5 21 62.5t-21 63t-56 26q-34 0 -55.5 -26t-21.5 -63t21.5 -62.5t55.5 -25.5q35 0 56 25.5zM386 54.5
q-30 30.5 -30 73.5t30 73.5t72 30.5q43 0 73 -30.5t30 -73.5t-30 -73.5t-73 -30.5q-42 0 -72 30.5zM514 65.5q21 25.5 21 62.5t-21 63t-56 26q-34 0 -55.5 -26t-21.5 -63t21.5 -62.5t55.5 -25.5q35 0 56 25.5z" />
    <glyph glyph-name="ampersand" unicode="&#x26;" horiz-adv-x="677" 
d="M677 4v-4h-50q-40 29 -114 100q-45 -52 -106.5 -83.5t-121.5 -31.5q-66 0 -122 26.5t-89.5 75t-33.5 111.5q0 82 52.5 144t125.5 98q-67 100 -67 154q0 122 137 122q57 0 88 -33t31 -79q0 -50 -33 -91t-83 -56l-6 -1q-7 0 -5 7q53 18 81.5 55t28.5 84q0 42 -26.5 70
t-70.5 28q-103 0 -103 -88q0 -77 98 -207t233 -265q31 54 31 116q0 67 -25.5 111t-79.5 44l1 10q62 0 99.5 -42.5t37.5 -109.5q0 -73 -51 -142l37 -36q85 -80 106 -87zM406 30q58 30 96 81q-79 77 -153.5 161.5t-124.5 158.5q-70 -37 -109.5 -95t-39.5 -129q0 -58 23.5 -105
t70.5 -74.5t115 -27.5q64 0 122 30z" />
    <glyph glyph-name="quotesingle" unicode="'" horiz-adv-x="78" 
d="M20 700h38l-13 -141h-12z" />
    <glyph glyph-name="parenleft" unicode="(" horiz-adv-x="236" 
d="M156.5 666q-27.5 -54 -46.5 -140t-19 -176t19 -176t46.5 -140t49.5 -54v-15q-31 0 -70.5 55.5t-67.5 145t-28 184.5t28 184.5t67.5 145t70.5 55.5v-15q-22 0 -49.5 -54z" />
    <glyph glyph-name="parenright" unicode=")" horiz-adv-x="236" 
d="M30 735q31 0 70.5 -55.5t67.5 -145t28 -184.5t-28 -184.5t-67.5 -145t-70.5 -55.5v15q22 0 51 54.5t49.5 140.5t20.5 175t-20.5 175t-49.5 140.5t-51 54.5v15z" />
    <glyph glyph-name="asterisk" unicode="*" horiz-adv-x="338" 
d="M185 590q75 -30 93 -31q-1 -5 -12 -24t-15 -23q-8 12 -74 65q3 -24 8.5 -55t10.5 -42q-6 -2 -24 -2q-23 0 -31 2q7 14 19 96q-65 -53 -73 -64q-5 5 -15.5 23.5t-11.5 24.5q16 1 91 31q-75 30 -91 31q2 6 13 25t15 22q8 -13 38 -37t34 -27q-12 81 -19 95q4 2 28 2t27 -2
q-7 -16 -19 -94q4 3 34 27.5t39 36.5q4 -3 14 -20.5t14 -27.5q-19 -2 -93 -32z" />
    <glyph glyph-name="plus" unicode="+" horiz-adv-x="405" 
d="M355 272h-143v-138h-29v138h-133v29h133v138h29v-138h143v-29z" />
    <glyph glyph-name="comma" unicode="," horiz-adv-x="242" 
d="M153 43q9 -13 9 -32l-1 -10q-3 -36 -24.5 -64t-58.5 -61l-8 10q59 49 66 102q-10 -7 -22 -5q-16 1 -26.5 12.5t-10.5 27.5q0 18 13 29.5t31 9.5q4 0 8 -2q15 -4 24 -17z" />
    <glyph glyph-name="hyphen" unicode="-" horiz-adv-x="405" 
d="M355 272h-305v29h305v-29z" />
    <glyph glyph-name="period" unicode="." horiz-adv-x="239" 
d="M91.5 -4.5q-11.5 11.5 -11.5 28.5t11.5 28t28.5 11t28 -11t11 -28t-11 -28.5t-28 -11.5t-28.5 11.5z" />
    <glyph glyph-name="slash" unicode="/" horiz-adv-x="376" 
d="M283 716h33l-223 -732h-33z" />
    <glyph glyph-name="zero" unicode="0" horiz-adv-x="591" 
d="M168 34q-59 49 -93.5 133t-34.5 183t34.5 183t93.5 133t128 49t127.5 -49t93 -133t34.5 -183t-34.5 -183t-93 -133t-127.5 -49t-128 49zM409.5 47q48.5 47 74.5 127t26 176t-26 176t-74.5 127t-113.5 47t-113.5 -47t-75 -127t-26.5 -176t26.5 -176t75 -127t113.5 -47
t113.5 47z" />
    <glyph glyph-name="one" unicode="1" horiz-adv-x="243" 
d="M147 43q3 -34 16 -39v-4h-72v4q13 5 16 39t3 90v432h-30v5q19 20 24.5 51t5.5 79h34v-567q0 -56 3 -90z" />
    <glyph glyph-name="two" unicode="2" horiz-adv-x="476" 
d="M425 49h4v-49h-7h-128h-284v23q75 41 164.5 118.5t153.5 174t64 188.5q0 54 -20 99t-58 71t-89 26q-74 0 -112 -41.5t-51 -90.5h-38q21 55 74 101.5t136 46.5q59 0 105 -26t71.5 -73.5t25.5 -109.5q0 -137 -119 -259.5t-267 -224.5h279q89 6 96 26z" />
    <glyph glyph-name="three" unicode="3" horiz-adv-x="489" 
d="M368 369q35 -28 58 -69.5t23 -98.5q0 -65 -30 -114.5t-80 -76t-109 -26.5q-62 0 -117 35.5t-93 97.5v67h4q30 -83 83.5 -133.5t122.5 -50.5q82 0 133 52.5t51 135.5q0 78 -43 124.5t-128 81.5l-5 2v9l177 272h-245q-47 0 -86 -6t-44 -20h-4v49h6h128h275v-16l-4 -6v-1
l-159 -251q51 -29 86 -57z" />
    <glyph glyph-name="four" unicode="4" horiz-adv-x="536" 
d="M496 205v-49h-7h-107v-23q0 -56 3 -90t16 -39v-4h-72v4q13 5 16 39t3 90v23h-318v11l344 533l1 -1v1h7v-522q42 2 73.5 8t35.5 18zM348 178v446l1 3l-291 -449h290z" />
    <glyph glyph-name="five" unicode="5" horiz-adv-x="524" 
d="M374.5 419.5q52.5 -29.5 81 -79.5t28.5 -110q0 -71 -29 -126.5t-84.5 -87.5t-131.5 -32q-62 0 -117 35.5t-92 97.5v67h3q30 -82 84 -133t122 -51q62 0 108.5 29.5t71 76.5t24.5 99q0 95 -45 158.5t-144 63.5q-54 0 -89.5 -14.5t-52.5 -30.5h-19v318h322h7v-49h-4
q-5 14 -44.5 20t-86.5 6h-162l-12 -263q65 35 141 35q68 0 120.5 -29.5z" />
    <glyph glyph-name="six" unicode="6" horiz-adv-x="530" 
d="M389 410q49 -29 75 -78t26 -107q0 -59 -30 -115t-81.5 -91t-112.5 -35q-119 0 -172.5 79t-53.5 213q0 97 46.5 199.5t137 171.5t215.5 69v-16q-100 0 -175.5 -53t-120.5 -138.5t-60 -183.5q33 48 80.5 81t110.5 33q66 0 115 -29zM367 33.5q43 33.5 64 85t21 106.5
q0 89 -47 146t-131 57q-77 0 -124.5 -49t-71.5 -105q-1 -11 -1 -32q0 -106 48 -174t138 -68q61 0 104 33.5z" />
    <glyph glyph-name="seven" unicode="7" horiz-adv-x="436" 
d="M143 28q0 -19 12 -24v-4h-70v4q16 6 45 64l280 599h-266q-46 0 -85.5 -6.5t-44.5 -19.5h-4v59h436l-290 -621q-13 -31 -13 -51z" />
    <glyph glyph-name="eight" unicode="8" horiz-adv-x="517" 
d="M395.5 351.5q38.5 -26.5 65 -65.5t26.5 -92q0 -63 -28.5 -110.5t-79.5 -73.5t-116 -26q-59 0 -110.5 24.5t-82 68.5t-30.5 102q0 60 32 109t78 81t90 46q-69 38 -104.5 73t-35.5 85q0 35 22 68t59 54t81 21q52 0 90 -22t57.5 -55.5t19.5 -68.5q0 -49 -41.5 -92.5
t-92.5 -66.5q62 -33 100.5 -59.5zM171.5 493q36.5 -34 108.5 -74q55 23 93 61t38 88q0 32 -18.5 62.5t-51.5 50t-74 19.5q-38 0 -68 -19t-47 -48t-17 -55q0 -51 36.5 -85zM366.5 28.5q44.5 28.5 67.5 71t23 82.5q0 55 -29 95.5t-67.5 66t-109.5 65.5q-83 -29 -128 -87
t-45 -135q0 -82 46.5 -134.5t137.5 -52.5q60 0 104.5 28.5z" />
    <glyph glyph-name="nine" unicode="9" horiz-adv-x="520" 
d="M426.5 638q53.5 -78 53.5 -212q0 -97 -46.5 -200t-137 -172.5t-215.5 -69.5v16q99 0 174.5 53.5t120.5 139.5t60 184q-80 -113 -190 -113q-67 0 -116 29t-74.5 77.5t-25.5 106.5q0 59 30 114.5t81.5 90t112.5 34.5q119 0 172.5 -78zM369 322q47 48 72 104q1 12 1 34
q0 106 -47 173t-138 67q-61 0 -104 -32.5t-64 -84t-21 -106.5q0 -88 47.5 -145.5t130.5 -57.5q76 0 123 48z" />
    <glyph glyph-name="colon" unicode=":" horiz-adv-x="239" 
d="M91.5 382.5q-11.5 11.5 -11.5 28.5t11.5 28t28.5 11t28 -11t11 -28t-11 -28.5t-28 -11.5t-28.5 11.5zM91.5 -4.5q-11.5 11.5 -11.5 28.5t11.5 28t28.5 11t28 -11t11 -28t-11 -28.5t-28 -11.5t-28.5 11.5z" />
    <glyph glyph-name="semicolon" unicode=";" horiz-adv-x="241" 
d="M88.5 382.5q-11.5 11.5 -11.5 28.5t11.5 28t28.5 11t28 -11t11 -28t-11 -28.5t-28 -11.5t-28.5 11.5zM152 43q9 -13 9 -32l-1 -10q-3 -36 -24.5 -64t-58.5 -61l-8 10q59 49 66 102q-10 -7 -22 -5q-16 1 -26.5 12.5t-10.5 27.5q0 18 13 29.5t31 9.5q4 0 8 -2q15 -4 24 -17
z" />
    <glyph glyph-name="less" unicode="&#x3c;" horiz-adv-x="398" 
d="M74 292l284 -152l-11 -35l-307 187l307 187l11 -35z" />
    <glyph glyph-name="equal" unicode="=" horiz-adv-x="405" 
d="M355 332h-305v29h305v-29zM355 214h-305v29h305v-29z" />
    <glyph glyph-name="greater" unicode="&#x3e;" horiz-adv-x="398" 
d="M358 292l-307 -187l-11 35l284 152l-284 152l11 35z" />
    <glyph glyph-name="question" unicode="?" horiz-adv-x="532" 
d="M220 122q0 38 13 68.5t32.5 53t52.5 53.5q36 34 58 60t37 62.5t15 84.5q0 54 -20 99t-58 71t-89 26q-74 0 -112 -41.5t-51 -90.5h-38q21 55 74 101.5t136 46.5q59 0 105 -26t71.5 -73.5t25.5 -109.5q0 -51 -17.5 -88.5t-42.5 -62.5t-66 -57q-39 -30 -61 -51.5
t-37.5 -52.5t-15.5 -73h-12zM197.5 -4.5q-11.5 11.5 -11.5 28.5t11.5 28t28.5 11t28 -11t11 -28t-11 -28.5t-28 -11.5t-28.5 11.5z" />
    <glyph glyph-name="at" unicode="@" horiz-adv-x="802" 
d="M253 364q23 40 62.5 63t85.5 23q49 0 93 -28q-3 58 -26.5 92t-78.5 34q-31 0 -52 -13t-31 -31t-10 -34h-20q7 37 35 63t78 26q69 0 107.5 -44t38.5 -107q0 -20 -1 -37.5t-2 -31.5q-4 -56 -4 -86q0 -61 14.5 -96t53.5 -35q65 0 92 66t27 162q0 101 -38 180.5t-109 124.5
t-167 45q-89 0 -161 -47.5t-113 -128t-41 -174.5t41 -174.5t113 -128t161 -47.5q107 0 187 69l17 -16q-90 -67 -204 -67q-95 0 -176 49t-128 132.5t-47 182.5t47 183t128 133.5t176 49.5q97 0 177 -46.5t127 -130t47 -189.5q0 -55 -18 -110t-53 -90.5t-84 -35.5
q-56 0 -81 36q-49 -46 -115 -46q-46 0 -85.5 23.5t-62.5 63t-23 86.5t23 87zM493 322q3 47 2 85q-41 36 -94 36q-64 0 -99.5 -47.5t-35.5 -118.5t35.5 -118t99.5 -47q32 0 60 13t48 36q-11 20 -14.5 47t-3.5 62q0 16 2 52z" />
    <glyph glyph-name="A" unicode="A" horiz-adv-x="709" 
d="M40 4q16 5 36 53l231 569q14 36 14 55q0 12 -4 15v4q23 10 30 16h17l267 -655q22 -50 38 -57v-4h-98v4q12 5 12 22q0 23 -20 72l-46 119h-354l-34 -83q-15 -37 -23 -61.5t-8 -42.5q0 -19 12 -26v-4h-70v4zM510 234l-167 429l-174 -429h341z" />
    <glyph glyph-name="B" unicode="B" horiz-adv-x="540" 
d="M444 335q56 -55 56 -136q0 -63 -34.5 -112t-92 -76t-126.5 -27q-94 0 -187 16v4q13 5 16.5 39.5t3.5 89.5v432v1q0 57 -3.5 91.5t-16.5 38.5v4q108 16 176 16q50 0 93 -20t68.5 -56.5t25.5 -82.5q0 -39 -22.5 -72.5t-52.5 -54.5t-50 -25q90 -15 146 -70zM122 692v-279
q11 -1 56 -3h57q71 0 112.5 39t41.5 108q0 64 -41 103.5t-111 39.5q-69 0 -115 -8zM356 25.5q47 25.5 72.5 70.5t25.5 103q0 94 -56.5 146t-154.5 52q-56 0 -121 -5v-382q45 -10 123 -10q64 0 111 25.5z" />
    <glyph glyph-name="C" unicode="C" horiz-adv-x="749" 
d="M229.5 35q-82.5 49 -131 133t-48.5 183t48.5 183t131 133t180.5 49q94 0 167.5 -39t122.5 -107v-7h-46q-23 63 -91.5 100t-152.5 37q-91 0 -162 -47t-110.5 -127t-39.5 -175t39.5 -175.5t110.5 -128t162 -47.5q82 0 149 40t108 108l37 16l5 -4q-46 -81 -126 -127.5
t-173 -46.5q-98 0 -180.5 49z" />
    <glyph glyph-name="D" unicode="D" horiz-adv-x="692" 
d="M445 666q93 -49 145 -132.5t52 -183.5q0 -101 -48 -184.5t-136.5 -132t-204.5 -48.5q-63 0 -193 15v4q12 5 15.5 39.5t3.5 90.5v431v1q0 56 -3.5 90.5t-15.5 38.5v5q115 15 176 15q116 0 209 -49zM438 47q77 47 116.5 126.5t39.5 176.5q0 96 -43 176t-124 127t-191 47
q-79 0 -115 -8v-684q66 -8 132 -8q108 0 185 47z" />
    <glyph glyph-name="E" unicode="E" horiz-adv-x="560" 
d="M60 4q11 4 15 31.5t5 74.5v480q-1 47 -5 74.5t-15 31.5v4h401v-43h-4q-5 14 -45 20.5t-86 6.5h-204v-306h157q95 0 102 19h4v-55h-4q-5 13 -30 16t-72 3h-157v-345h263q42 0 84 9.5t46 23.5h5v-49h-460v4z" />
    <glyph glyph-name="F" unicode="F" horiz-adv-x="560" 
d="M520 700v-49h-5q-5 13 -46.5 22.5t-83.5 9.5h-254q-6 -16 -7.5 -45t-1.5 -72v-1v-227h129h1q56 0 90 3.5t39 16.5h4v-56l-4 1q-5 13 -39 16t-90 3h-1h-129v-189q0 -56 3 -90t16 -39v-4h-81v4q13 5 16.5 39t3.5 90v432v1q0 56 -3.5 90.5t-16.5 38.5v5h453h7z" />
    <glyph glyph-name="G" unicode="G" horiz-adv-x="767" 
d="M727 435v-5q-12 -4 -15.5 -38.5t-3.5 -90.5v-1v-105q0 -34 9 -55v-12q-12 -6 -30 -21q-45 -52 -121 -87t-156 -35q-98 0 -180.5 49t-131 133t-48.5 183t48.5 183t131 133t180.5 49q94 0 167.5 -39t122.5 -107v-7h-46q-23 63 -92 100.5t-152 37.5q-91 0 -160.5 -47.5
t-107 -127.5t-37.5 -175t37.5 -175.5t107 -127.5t160.5 -47q82 0 148.5 39t107.5 106v155v1q0 56 -3.5 90.5t-16.5 38.5v5h81z" />
    <glyph glyph-name="H" unicode="H" horiz-adv-x="729" 
d="M650 133q0 -56 3 -90t16 -39v-4h-81v4q13 5 16.5 39t3.5 90v348h-486v-348q0 -56 3.5 -90t16.5 -39v-4h-82v4q13 5 16.5 39t3.5 90v432v1q0 56 -3.5 90.5t-16.5 38.5v5h82v-5q-13 -4 -16.5 -38.5t-3.5 -90.5v-1v-68h486v68v1q0 56 -3.5 90.5t-16.5 38.5v5h81v-5
q-12 -4 -15.5 -38.5t-3.5 -90.5v-1v-432z" />
    <glyph glyph-name="I" unicode="I" horiz-adv-x="201" 
d="M122 133q0 -56 3 -90t16 -39v-4h-81v4q13 5 16.5 39t3.5 90v432v1q0 56 -3.5 90.5t-16.5 38.5v5h81v-5q-12 -4 -15.5 -38.5t-3.5 -90.5v-1v-432z" />
    <glyph glyph-name="J" unicode="J" horiz-adv-x="254" 
d="M-30 -218q80 0 115.5 37t41 77t5.5 104v590q-1 47 -5 74.5t-15 30.5v5h82v-5q-20 -6 -20 -105v-590q0 -99 -48.5 -165.5t-155.5 -67.5v15z" />
    <glyph glyph-name="K" unicode="K" horiz-adv-x="665" 
d="M581 37q31 -28 44 -32v-5h-64l-361 382l-78 -67v-181q0 -56 3.5 -90.5t16.5 -38.5v-5h-82v5q13 4 16.5 38.5t3.5 90.5v431v1q0 56 -3.5 90.5t-16.5 38.5v5h82v-5q-13 -4 -16.5 -38.5t-3.5 -90.5v-1v-228l424 363h47v-5q-17 -5 -52.5 -27.5t-70.5 -54.5h-1l-241 -207
l288 -304q34 -37 65 -65z" />
    <glyph glyph-name="L" unicode="L" horiz-adv-x="560" 
d="M520 49v-49h-7h-128h-325v4q13 5 16.5 39t3.5 90v432v1q0 56 -3.5 90.5t-16.5 38.5v5h81v-5q-12 -4 -15.5 -38.5t-3.5 -90.5v-1v-432q0 -43 1.5 -72t7.5 -45h254q42 0 83.5 9.5t46.5 23.5h5z" />
    <glyph glyph-name="M" unicode="M" horiz-adv-x="761" 
d="M704.5 34q6.5 -26 16.5 -30v-4h-81v4q12 4 12 43q0 25 -3 50q-2 26 -2 37l-51 540l-220 -607h-17l-211 582l-52 -567q-4 -68 22 -78v-4h-78v4q17 5 25.5 31.5t14.5 69.5l43 460q5 43 5 80q0 24 -3.5 35.5t-12.5 14.5v5h68l204 -563l205 563h67v-5q-12 -4 -12 -43
q0 -24 3 -50q2 -26 2 -37l43 -463q6 -42 12.5 -68z" />
    <glyph glyph-name="N" unicode="N" horiz-adv-x="656" 
d="M596 695q-20 0 -25.5 -35.5t-5.5 -93.5v-566h-51l-404 681v-548q0 -58 5.5 -93.5t25.5 -35.5v-4h-81v4q20 0 25.5 35.5t5.5 93.5v433q0 58 -5.5 93.5t-25.5 35.5v5h89l397 -668v534q0 58 -5.5 93.5t-25.5 35.5v5h81v-5z" />
    <glyph glyph-name="O" unicode="O" horiz-adv-x="819" 
d="M229.5 33.5q-82.5 49.5 -131 133.5t-48.5 183t48.5 183t131 133t180.5 49q97 0 179.5 -49t131 -133t48.5 -183t-48.5 -183t-131 -133.5t-179.5 -49.5q-98 0 -180.5 49.5zM570.5 47q69.5 47 107 127.5t37.5 175.5t-37.5 175.5t-107 127.5t-160.5 47t-160.5 -47
t-107.5 -127.5t-38 -175.5t38 -175.5t107.5 -127.5t160.5 -47t160.5 47z" />
    <glyph glyph-name="P" unicode="P" horiz-adv-x="566" 
d="M384.5 681q65.5 -30 103.5 -85t38 -128q0 -72 -37 -127t-103 -85.5t-149 -30.5q-39 0 -74.5 1.5t-41.5 1.5v-95q0 -55 3.5 -89.5t16.5 -39.5v-4h-81v4q12 5 15.5 39.5t3.5 89.5v432v1q0 56 -3.5 90.5t-15.5 38.5v5q71 11 180 11q79 0 144.5 -30zM415.5 297.5
q65.5 61.5 65.5 170.5q0 67 -29 120t-84 83t-128 30q-75 0 -119 -7v-442q64 -16 116 -16q113 0 178.5 61.5z" />
    <glyph glyph-name="Q" unicode="Q" horiz-adv-x="819" 
d="M740 205.5q-29 -68.5 -81 -119t-119 -76.5l229 -243h-51l-217 230q-44 -12 -91 -12q-98 0 -180.5 49t-131 133t-48.5 183t48.5 183t131 133t180.5 49q97 0 179.5 -49t131 -133t48.5 -183q0 -76 -29 -144.5zM488 10l-135 143l40 12l134 -142q88 39 138 127.5t50 199.5
q0 95 -37.5 175.5t-107 127.5t-160.5 47t-160.5 -47t-107.5 -127.5t-38 -175.5t38 -175.5t107.5 -127.5t160.5 -47q44 0 78 10z" />
    <glyph glyph-name="R" unicode="R" horiz-adv-x="618" 
d="M578 5v-5h-64l-217 229q-25 -4 -59 -4q-83 0 -116 3v-95q0 -55 3.5 -89.5t15.5 -39.5v-4h-81v4q13 5 16.5 39.5t3.5 89.5v432v1q0 56 -3.5 90.5t-16.5 38.5v5q72 11 180 11q79 0 144.5 -30t103.5 -85t38 -128q0 -84 -50.5 -145t-136.5 -85l130 -136q83 -89 109 -97z
M156.5 243.5q32.5 -7.5 81.5 -7.5q113 0 178 61.5t65 170.5q0 67 -29 120t-84 83t-128 30q-74 0 -118 -7v-443q2 0 34.5 -7.5z" />
    <glyph glyph-name="S" unicode="S" horiz-adv-x="641" 
d="M502.5 368.5q43.5 -26.5 71 -67t27.5 -100.5q0 -66 -38 -115t-102.5 -75.5t-142.5 -26.5q-82 0 -154.5 35.5t-123.5 97.5v67h5q39 -83 110.5 -133.5t162.5 -50.5q72 0 126.5 24t85 66.5t30.5 97.5q0 54 -25 89t-67.5 58.5t-119.5 54.5q-108 44 -170 89t-62 105
q0 57 53.5 93.5t148.5 36.5q71 0 134 -26q39 -14 76 -21h10q1 -9 1 -28l-1 -35h-7q-2 7 -10 15l-7 7q-3 3 -6.5 5.5t-7.5 5.5q-77 63 -182 63q-68 0 -115 -28t-47 -75q0 -37 26 -65t64.5 -47.5t103.5 -44.5l39 -16q70 -29 113.5 -55.5z" />
    <glyph glyph-name="T" unicode="T" horiz-adv-x="669" 
d="M629 700v-43h-4q-5 14 -44 20t-86 6h-144v-550q0 -56 3 -90t16 -39v-4h-81v4q13 5 16.5 39t3.5 90v550h-134q-47 0 -86.5 -6t-44.5 -20h-4v43h14h561h14z" />
    <glyph glyph-name="U" unicode="U" horiz-adv-x="658" 
d="M578 133q0 -56 3.5 -90t16.5 -39v-4h-81v4q14 5 18 63q-33 -30 -85 -54.5t-124 -24.5q-133 0 -190 62t-57 181v334v1q0 56 -3.5 90.5t-15.5 38.5v5h81v-5q-13 -4 -16.5 -38.5t-3.5 -90.5v-1v-334q0 -74 16 -124t61 -79.5t128 -29.5q63 0 109 23t69.5 47t31.5 37v28v432v1
q0 56 -3.5 90.5t-15.5 38.5v5h81v-5q-13 -4 -16.5 -38.5t-3.5 -90.5v-1v-432z" />
    <glyph glyph-name="V" unicode="V" horiz-adv-x="705" 
d="M665 695q-15 -5 -39 -58l-266 -658h-13l-275 674q-18 38 -32 42v5h95v-5q-12 -3 -12 -22q0 -16 11 -51l228 -585l225 555q21 53 21 77q0 20 -13 26v5h70v-5z" />
    <glyph glyph-name="W" unicode="W" horiz-adv-x="977" 
d="M937 695q-15 -5 -39 -58l-266 -658h-13l-131 320l-129 -320h-13l-275 675q-19 37 -31 41v5h94v-5q-12 -3 -12 -21q0 -15 7 -37t15.5 -43t11.5 -29l205 -528l118 293l-123 304q-12 27 -21.5 42.5t-18.5 18.5v5h94v-5q-11 -3 -11 -21q0 -20 16 -63l85 -220l94 237
q7 26 7 40q0 22 -13 27v5h70v-5q-15 -4 -33 -44l-116 -292l125 -322l231 568q15 43 15 64q0 20 -13 26v5h70v-5z" />
    <glyph glyph-name="X" unicode="X" horiz-adv-x="594" 
d="M554 4v-4h-97v4q9 3 9 13q0 13 -16 45l-166 279l-167 -271q-17 -32 -17 -48q0 -12 10 -18v-4h-70v4q13 5 30.5 29.5t49.5 75.5l153 249l-135 229h-1q-25 44 -47.5 73.5t-35.5 34.5v5h97v-5q-9 -3 -9 -14q0 -14 17 -45l138 -233l141 230q16 27 16 45q0 13 -10 17v5h70v-5
q-19 -6 -54 -60l-152 -249l176 -297q49 -77 70 -85z" />
    <glyph glyph-name="Y" unicode="Y" horiz-adv-x="660" 
d="M620 695q-16 -5 -39 -50l-270 -562q-16 -37 -16 -56q0 -17 12 -23v-4h-70v4q17 6 44 61l58 122l-246 449q-33 53 -53 59v5h95l-1 -5q-8 -1 -8 -12t10 -33l42 -75l3 -6l182 -332l186 388q13 31 13 48t-12 22l-1 5h71v-5z" />
    <glyph glyph-name="Z" unicode="Z" horiz-adv-x="624" 
d="M522.5 25.5q41.5 9.5 46.5 23.5h4v-49h-6h-128h-399l481 683h-297q-42 0 -83.5 -9.5t-46.5 -22.5h-4v49h6h128h360l-483 -684h338q42 0 83.5 9.5z" />
    <glyph glyph-name="bracketleft" unicode="[" horiz-adv-x="174" 
d="M77 719v-703h67v-16h-104v735h104v-16h-67z" />
    <glyph glyph-name="backslash" unicode="\" horiz-adv-x="376" 
d="M283 -16l-223 732h33l223 -732h-33z" />
    <glyph glyph-name="bracketright" unicode="]" horiz-adv-x="174" 
d="M134 0h-104v16h67v703h-67v16h104v-735z" />
    <glyph glyph-name="asciicircum" unicode="^" horiz-adv-x="234" 
d="M194 569l-25 -31l-52 136l-52 -136l-25 31l67 131h20z" />
    <glyph glyph-name="underscore" unicode="_" horiz-adv-x="530" 
d="M480 -46l-430 4v29l430 -4v-29z" />
    <glyph glyph-name="a" unicode="a" horiz-adv-x="707" 
d="M40 4q16 5 36 53l231 569q14 36 14 55q0 12 -4 15v4q23 10 30 16h15l267 -655q22 -50 38 -57v-4h-96v4q12 5 12 22q0 23 -20 72l-46 119h-354l-34 -83q-15 -37 -23 -61.5t-8 -42.5q0 -19 12 -26v-4h-70v4zM510 234l-167 429l-174 -429h341z" />
    <glyph glyph-name="b" unicode="b" horiz-adv-x="540" 
d="M444 335q56 -55 56 -136q0 -63 -34.5 -112t-92 -76t-126.5 -27q-94 0 -187 16v4q13 5 16.5 39.5t3.5 89.5v432v1q0 57 -3.5 91.5t-16.5 38.5v4q108 16 176 16q50 0 93 -20t68.5 -56.5t25.5 -82.5q0 -39 -22.5 -72.5t-52.5 -54.5t-50 -25q90 -15 146 -70zM122 692v-279
q11 -1 56 -3h57q71 0 112.5 39t41.5 108q0 64 -41 103.5t-111 39.5q-69 0 -115 -8zM356 25.5q47 25.5 72.5 70.5t25.5 103q0 94 -56.5 146t-154.5 52q-56 0 -121 -5v-382q45 -10 123 -10q64 0 111 25.5z" />
    <glyph glyph-name="c" unicode="c" horiz-adv-x="749" 
d="M229.5 35q-82.5 49 -131 133t-48.5 183t48.5 183t131 133t180.5 49q94 0 167.5 -39t122.5 -107v-7h-46q-23 63 -91.5 100t-152.5 37q-91 0 -162 -47t-110.5 -127t-39.5 -175t39.5 -175.5t110.5 -128t162 -47.5q82 0 149 40t108 108l37 16l5 -4q-46 -81 -126 -127.5
t-173 -46.5q-98 0 -180.5 49z" />
    <glyph glyph-name="d" unicode="d" horiz-adv-x="692" 
d="M445 666q93 -49 145 -132.5t52 -183.5q0 -101 -48 -184.5t-136.5 -132t-204.5 -48.5q-63 0 -193 15v4q12 5 15.5 39.5t3.5 90.5v431v1q0 56 -3.5 90.5t-15.5 38.5v5q115 15 176 15q116 0 209 -49zM438 47q77 47 116.5 126.5t39.5 176.5q0 96 -43 176t-124 127t-191 47
q-79 0 -115 -8v-684q66 -8 132 -8q108 0 185 47z" />
    <glyph glyph-name="e" unicode="e" horiz-adv-x="560" 
d="M60 4q11 4 15 31.5t5 74.5v480q-1 47 -5 74.5t-15 31.5v4h401v-43h-4q-5 14 -45 20.5t-86 6.5h-204v-306h157q95 0 102 19h4v-55h-4q-5 13 -30 16t-72 3h-157v-345h263q42 0 84 9.5t46 23.5h5v-49h-460v4z" />
    <glyph glyph-name="f" unicode="f" horiz-adv-x="560" 
d="M520 700v-49h-5q-5 13 -46.5 22.5t-83.5 9.5h-254q-6 -16 -7.5 -45t-1.5 -72v-1v-227h129h1q56 0 90 3.5t39 16.5h4v-56l-4 1q-5 13 -39 16t-90 3h-1h-129v-189q0 -56 3 -90t16 -39v-4h-81v4q13 5 16.5 39t3.5 90v432v1q0 56 -3.5 90.5t-16.5 38.5v5h453h7z" />
    <glyph glyph-name="g" unicode="g" horiz-adv-x="767" 
d="M727 435v-5q-12 -4 -15.5 -38.5t-3.5 -90.5v-1v-105q0 -34 9 -55v-12q-12 -6 -30 -21q-45 -52 -121 -87t-156 -35q-98 0 -180.5 49t-131 133t-48.5 183t48.5 183t131 133t180.5 49q94 0 167.5 -39t122.5 -107v-7h-46q-23 63 -92 100.5t-152 37.5q-91 0 -160.5 -47.5
t-107 -127.5t-37.5 -175t37.5 -175.5t107 -127.5t160.5 -47q82 0 148.5 39t107.5 106v155v1q0 56 -3.5 90.5t-16.5 38.5v5h81z" />
    <glyph glyph-name="h" unicode="h" horiz-adv-x="729" 
d="M650 133q0 -56 3 -90t16 -39v-4h-81v4q13 5 16.5 39t3.5 90v348h-486v-348q0 -56 3.5 -90t16.5 -39v-4h-82v4q13 5 16.5 39t3.5 90v432v1q0 56 -3.5 90.5t-16.5 38.5v5h82v-5q-13 -4 -16.5 -38.5t-3.5 -90.5v-1v-68h486v68v1q0 56 -3.5 90.5t-16.5 38.5v5h81v-5
q-12 -4 -15.5 -38.5t-3.5 -90.5v-1v-432z" />
    <glyph glyph-name="i" unicode="i" horiz-adv-x="201" 
d="M122 133q0 -56 3 -90t16 -39v-4h-81v4q13 5 16.5 39t3.5 90v432v1q0 56 -3.5 90.5t-16.5 38.5v5h81v-5q-12 -4 -15.5 -38.5t-3.5 -90.5v-1v-432z" />
    <glyph glyph-name="j" unicode="j" horiz-adv-x="254" 
d="M-30 -218q80 0 115.5 37t41 77t5.5 104v590q-1 47 -5 74.5t-15 30.5v5h82v-5q-20 -6 -20 -105v-590q0 -99 -48.5 -165.5t-155.5 -67.5v15z" />
    <glyph glyph-name="k" unicode="k" horiz-adv-x="665" 
d="M581 37q31 -28 44 -32v-5h-64l-361 382l-78 -67v-181q0 -56 3.5 -90.5t16.5 -38.5v-5h-82v5q13 4 16.5 38.5t3.5 90.5v431v1q0 56 -3.5 90.5t-16.5 38.5v5h82v-5q-13 -4 -16.5 -38.5t-3.5 -90.5v-1v-228l424 363h47v-5q-17 -5 -52.5 -27.5t-70.5 -54.5h-1l-241 -207
l288 -304q34 -37 65 -65z" />
    <glyph glyph-name="l" unicode="l" horiz-adv-x="560" 
d="M520 49v-49h-7h-128h-325v4q13 5 16.5 39t3.5 90v432v1q0 56 -3.5 90.5t-16.5 38.5v5h81v-5q-12 -4 -15.5 -38.5t-3.5 -90.5v-1v-432q0 -43 1.5 -72t7.5 -45h254q42 0 83.5 9.5t46.5 23.5h5z" />
    <glyph glyph-name="m" unicode="m" horiz-adv-x="761" 
d="M704.5 34q6.5 -26 16.5 -30v-4h-81v4q12 4 12 43q0 25 -3 50q-2 26 -2 37l-51 540l-220 -607h-17l-211 582l-52 -567q-4 -68 22 -78v-4h-78v4q17 5 25.5 31.5t14.5 69.5l43 460q5 43 5 80q0 24 -3.5 35.5t-12.5 14.5v5h68l204 -563l205 563h67v-5q-12 -4 -12 -43
q0 -24 3 -50q2 -26 2 -37l43 -463q6 -42 12.5 -68z" />
    <glyph glyph-name="n" unicode="n" horiz-adv-x="656" 
d="M596 695q-20 0 -25.5 -35.5t-5.5 -93.5v-566h-51l-404 681v-548q0 -58 5.5 -93.5t25.5 -35.5v-4h-81v4q20 0 25.5 35.5t5.5 93.5v433q0 58 -5.5 93.5t-25.5 35.5v5h89l397 -668v534q0 58 -5.5 93.5t-25.5 35.5v5h81v-5z" />
    <glyph glyph-name="o" unicode="o" horiz-adv-x="819" 
d="M229.5 33.5q-82.5 49.5 -131 133.5t-48.5 183t48.5 183t131 133t180.5 49q97 0 179.5 -49t131 -133t48.5 -183t-48.5 -183t-131 -133.5t-179.5 -49.5q-98 0 -180.5 49.5zM570.5 47q69.5 47 107 127.5t37.5 175.5t-37.5 175.5t-107 127.5t-160.5 47t-160.5 -47
t-107.5 -127.5t-38 -175.5t38 -175.5t107.5 -127.5t160.5 -47t160.5 47z" />
    <glyph glyph-name="p" unicode="p" horiz-adv-x="566" 
d="M384.5 681q65.5 -30 103.5 -85t38 -128q0 -72 -37 -127t-103 -85.5t-149 -30.5q-39 0 -74.5 1.5t-41.5 1.5v-95q0 -55 3.5 -89.5t16.5 -39.5v-4h-81v4q12 5 15.5 39.5t3.5 89.5v432v1q0 56 -3.5 90.5t-15.5 38.5v5q71 11 180 11q79 0 144.5 -30zM415.5 297.5
q65.5 61.5 65.5 170.5q0 67 -29 120t-84 83t-128 30q-75 0 -119 -7v-442q64 -16 116 -16q113 0 178.5 61.5z" />
    <glyph glyph-name="q" unicode="q" horiz-adv-x="819" 
d="M740 205.5q-29 -68.5 -81 -119t-119 -76.5l229 -243h-51l-217 230q-44 -12 -91 -12q-98 0 -180.5 49t-131 133t-48.5 183t48.5 183t131 133t180.5 49q97 0 179.5 -49t131 -133t48.5 -183q0 -76 -29 -144.5zM488 10l-135 143l40 12l134 -142q88 39 138 127.5t50 199.5
q0 95 -37.5 175.5t-107 127.5t-160.5 47t-160.5 -47t-107.5 -127.5t-38 -175.5t38 -175.5t107.5 -127.5t160.5 -47q44 0 78 10z" />
    <glyph glyph-name="r" unicode="r" horiz-adv-x="618" 
d="M578 5v-5h-64l-217 229q-25 -4 -59 -4q-83 0 -116 3v-95q0 -55 3.5 -89.5t15.5 -39.5v-4h-81v4q13 5 16.5 39.5t3.5 89.5v432v1q0 56 -3.5 90.5t-16.5 38.5v5q72 11 180 11q79 0 144.5 -30t103.5 -85t38 -128q0 -84 -50.5 -145t-136.5 -85l130 -136q83 -89 109 -97z
M156.5 243.5q32.5 -7.5 81.5 -7.5q113 0 178 61.5t65 170.5q0 67 -29 120t-84 83t-128 30q-74 0 -118 -7v-443q2 0 34.5 -7.5z" />
    <glyph glyph-name="s" unicode="s" horiz-adv-x="641" 
d="M502.5 368.5q43.5 -26.5 71 -67t27.5 -100.5q0 -66 -38 -115t-102.5 -75.5t-142.5 -26.5q-82 0 -154.5 35.5t-123.5 97.5v67h5q39 -83 110.5 -133.5t162.5 -50.5q72 0 126.5 24t85 66.5t30.5 97.5q0 54 -25 89t-67.5 58.5t-119.5 54.5q-108 44 -170 89t-62 105
q0 57 53.5 93.5t148.5 36.5q71 0 134 -26q39 -14 76 -21h10q1 -9 1 -28l-1 -35h-7q-2 7 -10 15l-7 7q-3 3 -6.5 5.5t-7.5 5.5q-77 63 -182 63q-68 0 -115 -28t-47 -75q0 -37 26 -65t64.5 -47.5t103.5 -44.5l39 -16q70 -29 113.5 -55.5z" />
    <glyph glyph-name="t" unicode="t" horiz-adv-x="669" 
d="M629 700v-43h-4q-5 14 -44 20t-86 6h-144v-550q0 -56 3 -90t16 -39v-4h-81v4q13 5 16.5 39t3.5 90v550h-134q-47 0 -86.5 -6t-44.5 -20h-4v43h14h561h14z" />
    <glyph glyph-name="u" unicode="u" horiz-adv-x="658" 
d="M578 133q0 -56 3.5 -90t16.5 -39v-4h-81v4q14 5 18 63q-33 -30 -85 -54.5t-124 -24.5q-133 0 -190 62t-57 181v334v1q0 56 -3.5 90.5t-15.5 38.5v5h81v-5q-13 -4 -16.5 -38.5t-3.5 -90.5v-1v-334q0 -74 16 -124t61 -79.5t128 -29.5q63 0 109 23t69.5 47t31.5 37v28v432v1
q0 56 -3.5 90.5t-15.5 38.5v5h81v-5q-13 -4 -16.5 -38.5t-3.5 -90.5v-1v-432z" />
    <glyph glyph-name="v" unicode="v" horiz-adv-x="705" 
d="M665 695q-15 -5 -39 -58l-266 -658h-13l-275 674q-18 38 -32 42v5h95v-5q-12 -3 -12 -22q0 -16 11 -51l228 -585l225 555q21 53 21 77q0 20 -13 26v5h70v-5z" />
    <glyph glyph-name="w" unicode="w" horiz-adv-x="977" 
d="M937 695q-15 -5 -39 -58l-266 -658h-13l-131 320l-129 -320h-13l-275 675q-19 37 -31 41v5h94v-5q-12 -3 -12 -21q0 -15 7 -37t15.5 -43t11.5 -29l205 -528l118 293l-123 304q-12 27 -21.5 42.5t-18.5 18.5v5h94v-5q-11 -3 -11 -21q0 -20 16 -63l85 -220l94 237
q7 26 7 40q0 22 -13 27v5h70v-5q-15 -4 -33 -44l-116 -292l125 -322l231 568q15 43 15 64q0 20 -13 26v5h70v-5z" />
    <glyph glyph-name="x" unicode="x" horiz-adv-x="594" 
d="M554 4v-4h-97v4q9 3 9 13q0 13 -16 45l-166 279l-167 -271q-17 -32 -17 -48q0 -12 10 -18v-4h-70v4q13 5 30.5 29.5t49.5 75.5l153 249l-135 229h-1q-25 44 -47.5 73.5t-35.5 34.5v5h97v-5q-9 -3 -9 -14q0 -14 17 -45l138 -233l141 230q16 27 16 45q0 13 -10 17v5h70v-5
q-19 -6 -54 -60l-152 -249l176 -297q49 -77 70 -85z" />
    <glyph glyph-name="y" unicode="y" horiz-adv-x="660" 
d="M620 695q-16 -5 -39 -50l-270 -562q-16 -37 -16 -56q0 -17 12 -23v-4h-70v4q17 6 44 61l58 122l-246 449q-33 53 -53 59v5h95l-1 -5q-8 -1 -8 -12t10 -33l42 -75l3 -6l182 -332l186 388q13 31 13 48t-12 22l-1 5h71v-5z" />
    <glyph glyph-name="z" unicode="z" horiz-adv-x="624" 
d="M522.5 25.5q41.5 9.5 46.5 23.5h4v-49h-6h-128h-399l481 683h-297q-42 0 -83.5 -9.5t-46.5 -22.5h-4v49h6h128h360l-483 -684h338q42 0 83.5 9.5z" />
    <glyph glyph-name="braceleft" unicode="{" horiz-adv-x="248" 
d="M147 687q-20 -36 -20 -98q0 -21 5 -86q4 -40 4 -52q0 -75 -57 -101q57 -26 57 -101q0 -12 -4 -52q-5 -65 -5 -86q0 -62 19.5 -98.5t71.5 -33.5v-14q-35 0 -58.5 4.5t-44.5 31t-21 85.5q0 27 2 73l1 57q0 55 -12 85.5t-45 38.5v20q33 8 45 38.5t12 85.5l-1 57q-2 46 -2 73
q0 59 21 85.5t44.5 31t58.5 4.5v-15q-51 3 -71 -33z" />
    <glyph glyph-name="bar" unicode="|" horiz-adv-x="131" 
d="M50 716h31v-732h-31v732z" />
    <glyph glyph-name="braceright" unicode="}" horiz-adv-x="248" 
d="M152 541l-1 -57q0 -55 12 -85.5t45 -38.5v-20q-33 -8 -45 -38.5t-12 -85.5l1 -57q2 -46 2 -73q0 -59 -21 -85.5t-44.5 -31t-58.5 -4.5v14q52 -3 71.5 33.5t19.5 98.5q0 21 -5 86q-4 40 -4 52q0 75 57 101q-57 26 -57 101q0 12 4 52q5 65 5 86q0 62 -20 98t-71 33v15
q35 0 58.5 -4.5t44.5 -31t21 -85.5q0 -27 -2 -73z" />
    <glyph glyph-name="asciitilde" unicode="~" horiz-adv-x="439" 
d="M389 338q0 -47 -21.5 -79t-59.5 -32q-23 0 -42 10t-46 30t-46.5 30t-42.5 10q-31 0 -45 -25t-16 -55h-20q0 47 21.5 79t59.5 32q25 0 46.5 -10.5t48.5 -31.5q26 -19 44 -28.5t38 -9.5q31 0 45 25t16 55h20z" />
    <glyph glyph-name="exclamdown" unicode="&#xa1;" horiz-adv-x="239" 
d="M148 438.5q11 -11.5 11 -28.5q0 -16 -11 -27.5t-28 -11.5t-28.5 11t-11.5 28t11.5 28.5t28.5 11.5t28 -11.5zM126 312q3 -198 9 -361.5t14 -216.5q-8 -11 -27 -11q-20 0 -31 11q8 49 14 212.5t9 365.5h12z" />
    <glyph glyph-name="cent" unicode="&#xa2;" horiz-adv-x="534" 
d="M494 255v-67q-37 -62 -92 -97.5t-117 -35.5h-5v-55h-29v57q-99 10 -155 77t-56 167q0 58 26.5 107t75.5 79t113 33v40h29v-40q45 -2 83.5 -16t63.5 -32l-19 -19q-54 50 -128 55l-4 -440h5q68 0 122 52t84 135h3zM92 195.5q23 -49.5 64.5 -83t95.5 -41.5l3 436
q-55 -4 -97.5 -34t-65.5 -76t-23 -96q0 -56 23 -105.5z" />
    <glyph glyph-name="sterling" unicode="&#xa3;" horiz-adv-x="520" 
d="M480 49v-49h-7h-128h-292q54 120 54 206q0 51 -17 110h-50v16h45q-13 49 -20 87t-7 88q0 62 25.5 109.5t71.5 73.5t105 26q83 0 136 -46.5t74 -101.5h-38q-13 49 -51 90.5t-112 41.5q-51 0 -89 -26t-58 -71t-20 -99q0 -47 4.5 -80t15.5 -92h156v-16h-153q8 -54 8 -82
q0 -45 -12.5 -96.5t-41.5 -121.5h266q42 0 83.5 9.5t46.5 23.5h5z" />
    <glyph glyph-name="yen" unicode="&#xa5;" horiz-adv-x="556" 
d="M516 695q-20 -6 -53 -59l-160 -291h93v-16h-100v-24h100v-16h-100v-289h-36v289h-102v16h102v24h-102v16h95l-160 291q-33 53 -53 59v5h85v-5q-8 -1 -8 -11q0 -15 19 -51l142 -259l142 259q19 36 19 51q0 10 -8 11v5h85v-5z" />
    <glyph glyph-name="section" unicode="&#xa7;" horiz-adv-x="488" 
d="M387 245q26 -20 40 -44t14 -56q0 -47 -29.5 -82.5t-78 -54.5t-103.5 -19q-56 0 -105 21t-85 59l23 9q29 -36 71 -56.5t94 -20.5q78 0 126.5 37t48.5 97q0 35 -17 58.5t-45.5 40.5t-80.5 41q-77 35 -120 66.5t-43 72.5q0 37 38 62.5t99 26.5q-61 30 -95.5 59t-34.5 65
q0 26 20.5 47.5t57 32.5t83.5 9q74 -1 140 -49l-16 -9q-55 47 -136 47q-47 0 -80 -19t-33 -52q0 -26 18 -45.5t43.5 -33.5t71.5 -34q5 -2 26 -11q49 -22 79 -40.5t50 -46t20 -65.5q0 -68 -61 -113zM368 257q42 39 42 92q0 34 -17 57.5t-45.5 40.5t-80.5 41l-9 4h-1
q-51 2 -87.5 -17t-36.5 -54q0 -26 18 -45.5t43.5 -33.5t71.5 -34q5 -2 26 -11q56 -27 76 -40z" />
    <glyph glyph-name="copyright" unicode="&#xa9;" horiz-adv-x="607" 
d="M171.5 118q-60.5 36 -96 97.5t-35.5 134.5t35.5 134t96 97t132.5 36q71 0 131.5 -36t96 -97t35.5 -134t-35.5 -134.5t-96 -97.5t-131.5 -36q-72 0 -132.5 36zM418.5 132q49.5 34 76.5 92t27 126t-27 125.5t-76.5 91.5t-114.5 34t-115 -34t-77 -91.5t-27 -125.5t27 -126
t77 -92t115 -34t114.5 34zM238 215.5q-33 19.5 -52.5 53.5t-19.5 74t19.5 74t52.5 53.5t73 19.5q38 0 67.5 -16t49.5 -43v-2h-19q-12 25 -35 35t-63 10q-34 0 -60.5 -19t-41 -49.5t-14.5 -62.5q0 -34 15.5 -64.5t42 -49t58.5 -18.5q73 0 104 50l14 7l2 -2q-18 -32 -50.5 -51
t-69.5 -19q-40 0 -73 19.5z" />
    <glyph glyph-name="guillemotleft" unicode="&#xab;" horiz-adv-x="370" 
d="M61 292l117 -152l-41 -35l-97 187l97 187l41 -35zM176 292l154 -152l-41 -35l-137 187l137 187l41 -35z" />
    <glyph glyph-name="registered" unicode="&#xae;" horiz-adv-x="487" 
d="M345.5 689.5q46.5 -27.5 74 -75t27.5 -103.5q0 -57 -27.5 -104.5t-74 -75.5t-101.5 -28q-56 0 -102.5 28t-74 75.5t-27.5 104.5q0 56 27.5 103.5t74 75t102.5 27.5q55 0 101.5 -27.5zM331 346q38 26 58.5 69.5t20.5 95.5q0 51 -20.5 94.5t-58.5 69t-87 25.5t-87 -25.5
t-58.5 -69t-20.5 -94.5q0 -52 20.5 -95.5t58.5 -69.5t87 -26t87 26zM266 467l83 -84l-27 -1l-77 88q-4 -1 -12 -1q-24 0 -32 1v-87h-24v266q17 5 56 5q44 0 73 -25.5t29 -67.5q0 -36 -22.5 -60.5t-59.5 -30.5zM233 473q40 1 63.5 24t23.5 64q0 39 -23.5 64t-63.5 25l-32 -1
v-172q16 -4 32 -4z" />
    <glyph glyph-name="degree" unicode="&#xb0;" horiz-adv-x="305" 
d="M80 537.5q-30 30.5 -30 73.5t30 73.5t72 30.5q43 0 73 -30.5t30 -73.5t-30 -73.5t-73 -30.5q-42 0 -72 30.5zM208 548.5q21 25.5 21 62.5t-21 63t-56 26q-34 0 -55.5 -26t-21.5 -63t21.5 -62.5t55.5 -25.5q35 0 56 25.5z" />
    <glyph glyph-name="uni00B2" unicode="&#xb2;" horiz-adv-x="247" 
d="M193 447.5q9 2.5 10 6.5h1v-19h-3h-50h-111v9q29 16 64.5 46.5t60.5 68.5t25 74q0 33 -18 55t-48 22q-29 0 -43.5 -16t-20.5 -36h-15q8 21 29 39.5t54 18.5q35 0 57 -22.5t22 -59.5q0 -85 -151 -190h116q12 1 21 3.5z" />
    <glyph glyph-name="uni00B3" unicode="&#xb3;" horiz-adv-x="249" 
d="M191.5 565.5q17.5 -19.5 17.5 -51.5q0 -39 -25 -62.5t-61 -23.5q-24 0 -46 14t-37 39v26h2q12 -32 33 -52t48 -20q32 0 52 20.5t20 53.5q0 31 -17.5 49.5t-51.5 31.5v4l70 107h-97q-18 0 -33.5 -3t-17.5 -8h-1v20h2h50h108v-7l-1 -2l-63 -99q31 -17 48.5 -36.5z" />
    <glyph glyph-name="periodcentered" unicode="&#xb7;" horiz-adv-x="239" 
d="M91.5 382.5q-11.5 11.5 -11.5 28.5t11.5 28t28.5 11t28 -11t11 -28t-11 -28.5t-28 -11.5t-28.5 11.5z" />
    <glyph glyph-name="uni00B9" unicode="&#xb9;" horiz-adv-x="113" 
d="M66.5 451.5q1.5 -13.5 6.5 -15.5v-1h-29v1q5 2 6.5 15.5t1.5 35.5v170h-12v2q7 7 9.5 19.5t2.5 31.5h13v-223q0 -22 1.5 -35.5z" />
    <glyph glyph-name="guillemotright" unicode="&#xbb;" horiz-adv-x="370" 
d="M218 292l-137 -187l-41 35l154 152l-154 152l41 35zM330 292l-97 -187l-41 35l117 152l-117 152l41 35z" />
    <glyph glyph-name="questiondown" unicode="&#xbf;" horiz-adv-x="532" 
d="M334.5 438.5q11.5 -11.5 11.5 -28.5t-11.5 -28t-28.5 -11q-16 0 -27.5 11.5t-11.5 27.5q0 17 11 28.5t28 11.5t28.5 -11.5zM312 312q0 -38 -13 -68.5t-32.5 -53t-52.5 -53.5q-36 -34 -58 -60t-37 -62.5t-15 -84.5q0 -54 20 -99t58 -71t89 -26q74 0 112 41.5t51 90.5h38
q-21 -55 -74 -101.5t-136 -46.5q-59 0 -105 26t-71.5 73.5t-25.5 109.5q0 51 17.5 88.5t42.5 62.5t66 57q39 30 61 51.5t37.5 52.5t15.5 73h12z" />
    <glyph glyph-name="Agrave" unicode="&#xc0;" horiz-adv-x="709" 
d="M40 4q16 5 36 53l231 569q14 36 14 55q0 12 -4 15v4q23 10 30 16h17l267 -655q22 -50 38 -57v-4h-98v4q12 5 12 22q0 23 -20 72l-46 119h-354l-34 -83q-15 -37 -23 -61.5t-8 -42.5q0 -19 12 -26v-4h-70v4zM510 234l-167 429l-174 -429h341zM319 818q28 -28 66 -52l10 10
q-18 18 -36 42.5t-28 51.5h-55q15 -24 43 -52z" />
    <glyph glyph-name="Aacute" unicode="&#xc1;" horiz-adv-x="709" 
d="M40 4q16 5 36 53l231 569q14 36 14 55q0 12 -4 15v4q23 10 30 16h17l267 -655q22 -50 38 -57v-4h-98v4q12 5 12 22q0 23 -20 72l-46 119h-354l-34 -83q-15 -37 -23 -61.5t-8 -42.5q0 -19 12 -26v-4h-70v4zM510 234l-167 429l-174 -429h341zM374 870q-10 -27 -28 -51.5
t-36 -42.5l10 -10q38 24 66 52t43 52h-55z" />
    <glyph glyph-name="Acircumflex" unicode="&#xc2;" horiz-adv-x="709" 
d="M40 4q16 5 36 53l231 569q14 36 14 55q0 12 -4 15v4q23 10 30 16h17l267 -655q22 -50 38 -57v-4h-98v4q12 5 12 22q0 23 -20 72l-46 119h-354l-34 -83q-15 -37 -23 -61.5t-8 -42.5q0 -19 12 -26v-4h-70v4zM510 234l-167 429l-174 -429h341zM407.5 824q25.5 -22 35.5 -38
l-35 -20q-16 41 -64 86q-48 -45 -64 -86l-35 20q10 16 35.5 38t63.5 46q38 -24 63.5 -46z" />
    <glyph glyph-name="Atilde" unicode="&#xc3;" horiz-adv-x="709" 
d="M40 4q16 5 36 53l231 569q14 36 14 55q0 12 -4 15v4q23 10 30 16h17l267 -655q22 -50 38 -57v-4h-98v4q12 5 12 22q0 23 -20 72l-46 119h-354l-34 -83q-15 -37 -23 -61.5t-8 -42.5q0 -19 12 -26v-4h-70v4zM510 234l-167 429l-174 -429h341zM439 848q0 -27 -12 -45
t-34 -18q-10 0 -18 4.5t-22 15.5q-15 10 -23 14.5t-17 4.5q-18 0 -26 -11.5t-9 -27.5h-11q0 27 12.5 45t33.5 18q11 0 19.5 -5t24.5 -16q23 -19 36 -19q18 0 26 12.5t8 27.5h12z" />
    <glyph glyph-name="Adieresis" unicode="&#xc4;" horiz-adv-x="709" 
d="M40 4q16 5 36 53l231 569q14 36 14 55q0 12 -4 15v4q23 10 30 16h17l267 -655q22 -50 38 -57v-4h-98v4q12 5 12 22q0 23 -20 72l-46 119h-354l-34 -83q-15 -37 -23 -61.5t-8 -42.5q0 -19 12 -26v-4h-70v4zM510 234l-167 429l-174 -429h341zM264.5 795.5
q-9.5 9.5 -9.5 23.5t9.5 23t23.5 9q13 0 22.5 -9t9.5 -23t-9 -23.5t-23 -9.5t-23.5 9.5zM383.5 795.5q-9.5 9.5 -9.5 23.5t9.5 23t23.5 9q13 0 22.5 -9t9.5 -23t-9 -23.5t-23 -9.5t-23.5 9.5z" />
    <glyph glyph-name="Aring" unicode="&#xc5;" horiz-adv-x="709" 
d="M40 4q16 5 36 53l231 569q14 36 14 55q0 12 -4 15v4q23 10 30 16h17l267 -655q22 -50 38 -57v-4h-98v4q12 5 12 22q0 23 -20 72l-46 119h-354l-34 -83q-15 -37 -23 -61.5t-8 -42.5q0 -19 12 -26v-4h-70v4zM510 234l-167 429l-174 -429h341zM313.5 782q-14.5 15 -14.5 37
t15 36.5t37 14.5t36.5 -14.5t14.5 -36.5t-14.5 -37t-36.5 -15q-23 0 -37.5 15zM374 795.5q9 9.5 9 23.5t-9.5 23t-22.5 9q-14 0 -23.5 -9t-9.5 -23t9.5 -23.5t23.5 -9.5t23 9.5z" />
    <glyph glyph-name="AE" unicode="&#xc6;" horiz-adv-x="975" 
d="M935 49v-49h-460v4q11 4 15 31.5t5 74.5v111h-285l-7 -13l-48 -77q-26 -43 -38.5 -66.5t-12.5 -41.5q0 -14 8 -19v-4h-72v4q9 1 21 16.5t29 43.5l352 556q24 40 24 58q0 8 -3 10l1 4q30 7 31 8h381v-43h-4q-5 14 -45 20.5t-86 6.5h-204v-306h157q95 0 102 19h4v-55h-4
q-5 13 -30 16t-72 3h-157v-345h263q42 0 84 9.5t46 23.5h5zM495 238v352q0 22 -1 32q0 31 -1 44l-9 -15l-263 -413h274z" />
    <glyph glyph-name="Ccedilla" unicode="&#xc7;" horiz-adv-x="749" 
d="M587.5 35q-77.5 -47 -167.5 -49l-16 -40l17 1q13 0 25 -8.5t12 -25.5q0 -42 -53 -42q-17 0 -42 5v14q28 -5 41 -5q33 0 33 17t-28 17q-9 0 -23 -2l-12 -2l28 71q-96 2 -177 51.5t-128 132.5t-47 181q0 99 48.5 183t131 133t180.5 49q94 0 167.5 -39t122.5 -107v-7h-46
q-23 63 -91.5 100t-152.5 37q-91 0 -162 -47t-110.5 -127t-39.5 -175t39.5 -175.5t110.5 -128t162 -47.5q82 0 149 40t108 108l37 16l5 -4q-44 -78 -121.5 -125z" />
    <glyph glyph-name="Egrave" unicode="&#xc8;" horiz-adv-x="560" 
d="M60 4q11 4 15 31.5t5 74.5v480q-1 47 -5 74.5t-15 31.5v4h401v-43h-4q-5 14 -45 20.5t-86 6.5h-204v-306h157q95 0 102 19h4v-55h-4q-5 13 -30 16t-72 3h-157v-345h263q42 0 84 9.5t46 23.5h5v-49h-460v4zM256 818q28 -28 66 -52l10 10q-18 18 -36 42.5t-28 51.5h-55
q15 -24 43 -52z" />
    <glyph glyph-name="Eacute" unicode="&#xc9;" horiz-adv-x="560" 
d="M60 4q11 4 15 31.5t5 74.5v480q-1 47 -5 74.5t-15 31.5v4h401v-43h-4q-5 14 -45 20.5t-86 6.5h-204v-306h157q95 0 102 19h4v-55h-4q-5 13 -30 16t-72 3h-157v-345h263q42 0 84 9.5t46 23.5h5v-49h-460v4zM304 870q-10 -27 -28 -51.5t-36 -42.5l10 -10q38 24 66 52t43 52
h-55z" />
    <glyph glyph-name="Ecircumflex" unicode="&#xca;" horiz-adv-x="560" 
d="M60 4q11 4 15 31.5t5 74.5v480q-1 47 -5 74.5t-15 31.5v4h401v-43h-4q-5 14 -45 20.5t-86 6.5h-204v-306h157q95 0 102 19h4v-55h-4q-5 13 -30 16t-72 3h-157v-345h263q42 0 84 9.5t46 23.5h5v-49h-460v4zM346.5 824q25.5 -22 35.5 -38l-35 -20q-16 41 -64 86
q-48 -45 -64 -86l-35 20q10 16 35.5 38t63.5 46q38 -24 63.5 -46z" />
    <glyph glyph-name="Edieresis" unicode="&#xcb;" horiz-adv-x="560" 
d="M60 4q11 4 15 31.5t5 74.5v480q-1 47 -5 74.5t-15 31.5v4h401v-43h-4q-5 14 -45 20.5t-86 6.5h-204v-306h157q95 0 102 19h4v-55h-4q-5 13 -30 16t-72 3h-157v-345h263q42 0 84 9.5t46 23.5h5v-49h-460v4zM196.5 795.5q-9.5 9.5 -9.5 23.5t9.5 23t23.5 9q13 0 22.5 -9
t9.5 -23t-9 -23.5t-23 -9.5t-23.5 9.5zM315.5 795.5q-9.5 9.5 -9.5 23.5t9.5 23t23.5 9q13 0 22.5 -9t9.5 -23t-9 -23.5t-23 -9.5t-23.5 9.5z" />
    <glyph glyph-name="Igrave" unicode="&#xcc;" horiz-adv-x="189" 
d="M93 133q0 -56 3 -90t16 -39v-4h-81v4q13 5 16.5 39t3.5 90v432v1q0 56 -3.5 90.5t-16.5 38.5v5h81v-5q-12 -4 -15.5 -38.5t-3.5 -90.5v-1v-432zM53 818q28 -28 66 -52l10 10q-18 18 -36 42.5t-28 51.5h-55q15 -24 43 -52z" />
    <glyph glyph-name="Iacute" unicode="&#xcd;" horiz-adv-x="185" 
d="M137 133q0 -56 3 -90t16 -39v-4h-81v4q13 5 16.5 39t3.5 90v432v1q0 56 -3.5 90.5t-16.5 38.5v5h81v-5q-12 -4 -15.5 -38.5t-3.5 -90.5v-1v-432zM124 870q-10 -27 -28 -51.5t-36 -42.5l10 -10q38 24 66 52t43 52h-55z" />
    <glyph glyph-name="Icircumflex" unicode="&#xce;" horiz-adv-x="202" 
d="M126 133q0 -56 3 -90t16 -39v-4h-81v4q13 5 16.5 39t3.5 90v432v1q0 56 -3.5 90.5t-16.5 38.5v5h81v-5q-12 -4 -15.5 -38.5t-3.5 -90.5v-1v-432zM166.5 824q25.5 -22 35.5 -38l-35 -20q-16 41 -64 86q-48 -45 -64 -86l-35 20q10 16 35.5 38t63.5 46q38 -24 63.5 -46z" />
    <glyph glyph-name="Idieresis" unicode="&#xcf;" horiz-adv-x="201" 
d="M126 133q0 -56 3 -90t16 -39v-4h-81v4q13 5 16.5 39t3.5 90v432v1q0 56 -3.5 90.5t-16.5 38.5v5h81v-5q-12 -4 -15.5 -38.5t-3.5 -90.5v-1v-432zM19.5 795.5q-9.5 9.5 -9.5 23.5t9.5 23t23.5 9q13 0 22.5 -9t9.5 -23t-9 -23.5t-23 -9.5t-23.5 9.5zM138.5 795.5
q-9.5 9.5 -9.5 23.5t9.5 23t23.5 9q13 0 22.5 -9t9.5 -23t-9 -23.5t-23 -9.5t-23.5 9.5z" />
    <glyph glyph-name="Eth" unicode="&#xd0;" horiz-adv-x="692" 
d="M445 666q93 -49 145 -132.5t52 -183.5q0 -101 -48 -184.5t-136.5 -132t-204.5 -48.5q-63 0 -193 15v4q12 5 15.5 39.5t3.5 90.5v144h-49v20h49v267v1q0 56 -3.5 90.5t-15.5 38.5v5q115 15 176 15q116 0 209 -49zM438 47q77 47 116.5 126.5t39.5 176.5q0 96 -43 176
t-124 127t-191 47q-79 0 -115 -8v-394h43v-20h-43v-270q66 -8 132 -8q108 0 185 47z" />
    <glyph glyph-name="Ntilde" unicode="&#xd1;" horiz-adv-x="656" 
d="M596 695q-20 0 -25.5 -35.5t-5.5 -93.5v-566h-51l-404 681v-548q0 -58 5.5 -93.5t25.5 -35.5v-4h-81v4q20 0 25.5 35.5t5.5 93.5v433q0 58 -5.5 93.5t-25.5 35.5v5h89l397 -668v534q0 58 -5.5 93.5t-25.5 35.5v5h81v-5zM430 848q0 -27 -12 -45t-34 -18q-10 0 -18 4.5
t-22 15.5q-15 10 -23 14.5t-17 4.5q-18 0 -26 -11.5t-9 -27.5h-11q0 27 12.5 45t33.5 18q11 0 19.5 -5t24.5 -16q23 -19 36 -19q18 0 26 12.5t8 27.5h12z" />
    <glyph glyph-name="Ograve" unicode="&#xd2;" horiz-adv-x="819" 
d="M229.5 33.5q-82.5 49.5 -131 133.5t-48.5 183t48.5 183t131 133t180.5 49q97 0 179.5 -49t131 -133t48.5 -183t-48.5 -183t-131 -133.5t-179.5 -49.5q-98 0 -180.5 49.5zM570.5 47q69.5 47 107 127.5t37.5 175.5t-37.5 175.5t-107 127.5t-160.5 47t-160.5 -47
t-107.5 -127.5t-38 -175.5t38 -175.5t107.5 -127.5t160.5 -47t160.5 47zM393 818q28 -28 66 -52l10 10q-18 18 -36 42.5t-28 51.5h-55q15 -24 43 -52z" />
    <glyph glyph-name="Oacute" unicode="&#xd3;" horiz-adv-x="819" 
d="M229.5 33.5q-82.5 49.5 -131 133.5t-48.5 183t48.5 183t131 133t180.5 49q97 0 179.5 -49t131 -133t48.5 -183t-48.5 -183t-131 -133.5t-179.5 -49.5q-98 0 -180.5 49.5zM570.5 47q69.5 47 107 127.5t37.5 175.5t-37.5 175.5t-107 127.5t-160.5 47t-160.5 -47
t-107.5 -127.5t-38 -175.5t38 -175.5t107.5 -127.5t160.5 -47t160.5 47zM483 870q-10 -27 -28 -51.5t-36 -42.5l10 -10q38 24 66 52t43 52h-55z" />
    <glyph glyph-name="Ocircumflex" unicode="&#xd4;" horiz-adv-x="819" 
d="M229.5 33.5q-82.5 49.5 -131 133.5t-48.5 183t48.5 183t131 133t180.5 49q97 0 179.5 -49t131 -133t48.5 -183t-48.5 -183t-131 -133.5t-179.5 -49.5q-98 0 -180.5 49.5zM570.5 47q69.5 47 107 127.5t37.5 175.5t-37.5 175.5t-107 127.5t-160.5 47t-160.5 -47
t-107.5 -127.5t-38 -175.5t38 -175.5t107.5 -127.5t160.5 -47t160.5 47zM473.5 824q25.5 -22 35.5 -38l-35 -20q-16 41 -64 86q-48 -45 -64 -86l-35 20q10 16 35.5 38t63.5 46q38 -24 63.5 -46z" />
    <glyph glyph-name="Otilde" unicode="&#xd5;" horiz-adv-x="819" 
d="M229.5 33.5q-82.5 49.5 -131 133.5t-48.5 183t48.5 183t131 133t180.5 49q97 0 179.5 -49t131 -133t48.5 -183t-48.5 -183t-131 -133.5t-179.5 -49.5q-98 0 -180.5 49.5zM570.5 47q69.5 47 107 127.5t37.5 175.5t-37.5 175.5t-107 127.5t-160.5 47t-160.5 -47
t-107.5 -127.5t-38 -175.5t38 -175.5t107.5 -127.5t160.5 -47t160.5 47zM516 848q0 -27 -12 -45t-34 -18q-10 0 -18 4.5t-22 15.5q-15 10 -23 14.5t-17 4.5q-18 0 -26 -11.5t-9 -27.5h-11q0 27 12.5 45t33.5 18q11 0 19.5 -5t24.5 -16q23 -19 36 -19q18 0 26 12.5t8 27.5h12
z" />
    <glyph glyph-name="Odieresis" unicode="&#xd6;" horiz-adv-x="819" 
d="M229.5 33.5q-82.5 49.5 -131 133.5t-48.5 183t48.5 183t131 133t180.5 49q97 0 179.5 -49t131 -133t48.5 -183t-48.5 -183t-131 -133.5t-179.5 -49.5q-98 0 -180.5 49.5zM570.5 47q69.5 47 107 127.5t37.5 175.5t-37.5 175.5t-107 127.5t-160.5 47t-160.5 -47
t-107.5 -127.5t-38 -175.5t38 -175.5t107.5 -127.5t160.5 -47t160.5 47zM337.5 795.5q-9.5 9.5 -9.5 23.5t9.5 23t23.5 9q13 0 22.5 -9t9.5 -23t-9 -23.5t-23 -9.5t-23.5 9.5zM456.5 795.5q-9.5 9.5 -9.5 23.5t9.5 23t23.5 9q13 0 22.5 -9t9.5 -23t-9 -23.5t-23 -9.5
t-23.5 9.5z" />
    <glyph glyph-name="multiply" unicode="&#xd7;" horiz-adv-x="344" 
d="M273 166l-98 100l-104 -102l-21 21l105 102l-95 97l21 21l95 -98l93 91l20 -21l-93 -91l98 -100z" />
    <glyph glyph-name="Oslash" unicode="&#xd8;" horiz-adv-x="819" 
d="M659 613q52 -51 81 -119t29 -144q0 -99 -48.5 -183t-131 -133.5t-179.5 -49.5q-59 0 -112 18l-25 -72h-21l28 79q-67 26 -119.5 77t-81.5 119.5t-29 144.5q0 99 48.5 183t131 133t180.5 49q58 0 111 -18l26 73h21l-28 -80q67 -26 119 -77zM152.5 153.5
q48.5 -87.5 133.5 -126.5l230 654q-51 19 -106 19q-91 0 -160.5 -47t-107.5 -127.5t-38 -175.5q0 -109 48.5 -196.5zM570.5 47q69.5 47 107 127.5t37.5 175.5q0 109 -48 196.5t-133 126.5l-230 -654q51 -19 106 -19q91 0 160.5 47z" />
    <glyph glyph-name="Ugrave" unicode="&#xd9;" horiz-adv-x="658" 
d="M578 133q0 -56 3.5 -90t16.5 -39v-4h-81v4q14 5 18 63q-33 -30 -85 -54.5t-124 -24.5q-133 0 -190 62t-57 181v334v1q0 56 -3.5 90.5t-15.5 38.5v5h81v-5q-13 -4 -16.5 -38.5t-3.5 -90.5v-1v-334q0 -74 16 -124t61 -79.5t128 -29.5q63 0 109 23t69.5 47t31.5 37v28v432v1
q0 56 -3.5 90.5t-15.5 38.5v5h81v-5q-13 -4 -16.5 -38.5t-3.5 -90.5v-1v-432zM312 818q28 -28 66 -52l10 10q-18 18 -36 42.5t-28 51.5h-55q15 -24 43 -52z" />
    <glyph glyph-name="Uacute" unicode="&#xda;" horiz-adv-x="658" 
d="M578 133q0 -56 3.5 -90t16.5 -39v-4h-81v4q14 5 18 63q-33 -30 -85 -54.5t-124 -24.5q-133 0 -190 62t-57 181v334v1q0 56 -3.5 90.5t-15.5 38.5v5h81v-5q-13 -4 -16.5 -38.5t-3.5 -90.5v-1v-334q0 -74 16 -124t61 -79.5t128 -29.5q63 0 109 23t69.5 47t31.5 37v28v432v1
q0 56 -3.5 90.5t-15.5 38.5v5h81v-5q-13 -4 -16.5 -38.5t-3.5 -90.5v-1v-432zM374 870q-10 -27 -28 -51.5t-36 -42.5l10 -10q38 24 66 52t43 52h-55z" />
    <glyph glyph-name="Ucircumflex" unicode="&#xdb;" horiz-adv-x="658" 
d="M578 133q0 -56 3.5 -90t16.5 -39v-4h-81v4q14 5 18 63q-33 -30 -85 -54.5t-124 -24.5q-133 0 -190 62t-57 181v334v1q0 56 -3.5 90.5t-15.5 38.5v5h81v-5q-13 -4 -16.5 -38.5t-3.5 -90.5v-1v-334q0 -74 16 -124t61 -79.5t128 -29.5q63 0 109 23t69.5 47t31.5 37v28v432v1
q0 56 -3.5 90.5t-15.5 38.5v5h81v-5q-13 -4 -16.5 -38.5t-3.5 -90.5v-1v-432zM402.5 824q25.5 -22 35.5 -38l-35 -20q-16 41 -64 86q-48 -45 -64 -86l-35 20q10 16 35.5 38t63.5 46q38 -24 63.5 -46z" />
    <glyph glyph-name="Udieresis" unicode="&#xdc;" horiz-adv-x="658" 
d="M578 133q0 -56 3.5 -90t16.5 -39v-4h-81v4q14 5 18 63q-33 -30 -85 -54.5t-124 -24.5q-133 0 -190 62t-57 181v334v1q0 56 -3.5 90.5t-15.5 38.5v5h81v-5q-13 -4 -16.5 -38.5t-3.5 -90.5v-1v-334q0 -74 16 -124t61 -79.5t128 -29.5q63 0 109 23t69.5 47t31.5 37v28v432v1
q0 56 -3.5 90.5t-15.5 38.5v5h81v-5q-13 -4 -16.5 -38.5t-3.5 -90.5v-1v-432zM253.5 795.5q-9.5 9.5 -9.5 23.5t9.5 23t23.5 9q13 0 22.5 -9t9.5 -23t-9 -23.5t-23 -9.5t-23.5 9.5zM372.5 795.5q-9.5 9.5 -9.5 23.5t9.5 23t23.5 9q13 0 22.5 -9t9.5 -23t-9 -23.5t-23 -9.5
t-23.5 9.5z" />
    <glyph glyph-name="Yacute" unicode="&#xdd;" horiz-adv-x="660" 
d="M620 695q-16 -5 -39 -50l-270 -562q-16 -37 -16 -56q0 -17 12 -23v-4h-70v4q17 6 44 61l58 122l-246 449q-33 53 -53 59v5h95l-1 -5q-8 -1 -8 -12t10 -33l42 -75l3 -6l182 -332l186 388q13 31 13 48t-12 22l-1 5h71v-5zM382 870q-10 -27 -28 -51.5t-36 -42.5l10 -10
q38 24 66 52t43 52h-55z" />
    <glyph glyph-name="Thorn" unicode="&#xde;" horiz-adv-x="566" 
d="M384.5 589.5q65.5 -30.5 103.5 -86.5t38 -129q0 -72 -37 -127t-103 -85.5t-149 -30.5q-39 0 -74.5 1.5t-41.5 1.5v-1q0 -55 3.5 -89.5t16.5 -39.5v-4h-81v4q12 5 15.5 39.5t3.5 89.5v433v1q0 56 -3.5 90t-15.5 39v4h81v-4q-17 -6 -19 -78q46 2 118 2q79 0 144.5 -30.5z
M415.5 203.5q65.5 61.5 65.5 170.5q0 67 -29 120t-84 83t-128 30q-69 0 -119 -13v-27v-1v-408q64 -16 116 -16q113 0 178.5 61.5z" />
    <glyph glyph-name="germandbls" unicode="&#xdf;" horiz-adv-x="461" 
d="M345.5 387.5q34.5 -30.5 55 -74t20.5 -90.5q0 -62 -32.5 -117t-88.5 -88.5t-123 -33.5v16q61 0 106.5 28t70 76.5t24.5 109.5q0 58 -17 105.5t-48 76t-70 32.5l-79 -7v15h88q51 0 78.5 29.5t27.5 83.5q0 70 -36 110.5t-114 40.5q-52 0 -78 -29.5t-28 -71.5v-599h-42v560
q0 73 41 114.5t107 41.5q88 0 135 -43t47 -113q0 -52 -32.5 -87.5t-85.5 -43.5q39 -11 73.5 -41.5z" />
    <glyph glyph-name="agrave" unicode="&#xe0;" horiz-adv-x="709" 
d="M40 4q16 5 36 53l231 569q14 36 14 55q0 12 -4 15v4q23 10 30 16h15l267 -655q22 -50 38 -57v-4h-96v4q12 5 12 22q0 23 -20 72l-46 119h-354l-34 -83q-15 -37 -23 -61.5t-8 -42.5q0 -19 12 -26v-4h-70v4zM510 234l-167 429l-174 -429h341zM331 818q28 -28 66 -52l10 10
q-18 18 -36 42.5t-28 51.5h-55q15 -24 43 -52z" />
    <glyph glyph-name="aacute" unicode="&#xe1;" horiz-adv-x="709" 
d="M40 4q16 5 36 53l231 569q14 36 14 55q0 12 -4 15v4q23 10 30 16h15l267 -655q22 -50 38 -57v-4h-96v4q12 5 12 22q0 23 -20 72l-46 119h-354l-34 -83q-15 -37 -23 -61.5t-8 -42.5q0 -19 12 -26v-4h-70v4zM510 234l-167 429l-174 -429h341zM367 870q-10 -27 -28 -51.5
t-36 -42.5l10 -10q38 24 66 52t43 52h-55z" />
    <glyph glyph-name="acircumflex" unicode="&#xe2;" horiz-adv-x="709" 
d="M40 4q16 5 36 53l231 569q14 36 14 55q0 12 -4 15v4q23 10 30 16h15l267 -655q22 -50 38 -57v-4h-96v4q12 5 12 22q0 23 -20 72l-46 119h-354l-34 -83q-15 -37 -23 -61.5t-8 -42.5q0 -19 12 -26v-4h-70v4zM510 234l-167 429l-174 -429h341zM407.5 824q25.5 -22 35.5 -38
l-35 -20q-16 41 -64 86q-48 -45 -64 -86l-35 20q10 16 35.5 38t63.5 46q38 -24 63.5 -46z" />
    <glyph glyph-name="atilde" unicode="&#xe3;" horiz-adv-x="709" 
d="M40 4q16 5 36 53l231 569q14 36 14 55q0 12 -4 15v4q23 10 30 16h15l267 -655q22 -50 38 -57v-4h-96v4q12 5 12 22q0 23 -20 72l-46 119h-354l-34 -83q-15 -37 -23 -61.5t-8 -42.5q0 -19 12 -26v-4h-70v4zM510 234l-167 429l-174 -429h341zM443 848q0 -27 -12 -45
t-34 -18q-10 0 -18 4.5t-22 15.5q-15 10 -23 14.5t-17 4.5q-18 0 -26 -11.5t-9 -27.5h-11q0 27 12.5 45t33.5 18q11 0 19.5 -5t24.5 -16q23 -19 36 -19q18 0 26 12.5t8 27.5h12z" />
    <glyph glyph-name="adieresis" unicode="&#xe4;" horiz-adv-x="709" 
d="M40 4q16 5 36 53l231 569q14 36 14 55q0 12 -4 15v4q23 10 30 16h15l267 -655q22 -50 38 -57v-4h-96v4q12 5 12 22q0 23 -20 72l-46 119h-354l-34 -83q-15 -37 -23 -61.5t-8 -42.5q0 -19 12 -26v-4h-70v4zM510 234l-167 429l-174 -429h341zM267.5 795.5
q-9.5 9.5 -9.5 23.5t9.5 23t23.5 9q13 0 22.5 -9t9.5 -23t-9 -23.5t-23 -9.5t-23.5 9.5zM386.5 795.5q-9.5 9.5 -9.5 23.5t9.5 23t23.5 9q13 0 22.5 -9t9.5 -23t-9 -23.5t-23 -9.5t-23.5 9.5z" />
    <glyph glyph-name="aring" unicode="&#xe5;" horiz-adv-x="709" 
d="M40 4q16 5 36 53l231 569q14 36 14 55q0 12 -4 15v4q23 10 30 16h15l267 -655q22 -50 38 -57v-4h-96v4q12 5 12 22q0 23 -20 72l-46 119h-354l-34 -83q-15 -37 -23 -61.5t-8 -42.5q0 -19 12 -26v-4h-70v4zM510 234l-167 429l-174 -429h341zM309.5 782q-14.5 15 -14.5 37
t15 36.5t37 14.5t36.5 -14.5t14.5 -36.5t-14.5 -37t-36.5 -15q-23 0 -37.5 15zM370 795.5q9 9.5 9 23.5t-9.5 23t-22.5 9q-14 0 -23.5 -9t-9.5 -23t9.5 -23.5t23.5 -9.5t23 9.5z" />
    <glyph glyph-name="ae" unicode="&#xe6;" horiz-adv-x="975" 
d="M935 49v-49h-460v4q11 4 15 31.5t5 74.5v111h-285l-7 -13l-48 -77q-26 -43 -38.5 -66.5t-12.5 -41.5q0 -14 8 -19v-4h-72v4q9 1 21 16.5t29 43.5l352 556q24 40 24 58q0 8 -3 10l1 4q30 7 31 8h381v-43h-4q-5 14 -45 20.5t-86 6.5h-204v-306h157q95 0 102 19h4v-55h-4
q-5 13 -30 16t-72 3h-157v-345h263q42 0 84 9.5t46 23.5h5zM495 238v352q0 22 -1 32q0 31 -1 44l-9 -15l-263 -413h274z" />
    <glyph glyph-name="ccedilla" unicode="&#xe7;" horiz-adv-x="749" 
d="M586.5 34.5q-77.5 -46.5 -168.5 -48.5l-16 -40l17 1q13 0 25 -8.5t12 -25.5q0 -42 -53 -42q-17 0 -42 5v14q28 -5 41 -5q33 0 33 17t-28 17q-9 0 -23 -2l-12 -2l28 71q-96 2 -176 51.5t-127 132.5t-47 181q0 99 48.5 183t131 133t180.5 49q94 0 167.5 -39t122.5 -107v-7
h-46q-23 63 -91.5 100t-152.5 37q-91 0 -162 -47t-110.5 -127t-39.5 -175t39.5 -175.5t110.5 -128t162 -47.5q82 0 149 40t108 108l37 16l5 -4q-45 -79 -122.5 -125.5z" />
    <glyph glyph-name="egrave" unicode="&#xe8;" horiz-adv-x="560" 
d="M60 4q11 4 15 31.5t5 74.5v480q-1 47 -5 74.5t-15 31.5v4h401v-43h-4q-5 14 -45 20.5t-86 6.5h-204v-306h157q95 0 102 19h4v-55h-4q-5 13 -30 16t-72 3h-157v-345h263q42 0 84 9.5t46 23.5h5v-49h-460v4zM263 818q28 -28 66 -52l10 10q-18 18 -36 42.5t-28 51.5h-55
q15 -24 43 -52z" />
    <glyph glyph-name="eacute" unicode="&#xe9;" horiz-adv-x="560" 
d="M60 4q11 4 15 31.5t5 74.5v480q-1 47 -5 74.5t-15 31.5v4h401v-43h-4q-5 14 -45 20.5t-86 6.5h-204v-306h157q95 0 102 19h4v-55h-4q-5 13 -30 16t-72 3h-157v-345h263q42 0 84 9.5t46 23.5h5v-49h-460v4zM308 870q-10 -27 -28 -51.5t-36 -42.5l10 -10q38 24 66 52t43 52
h-55z" />
    <glyph glyph-name="ecircumflex" unicode="&#xea;" horiz-adv-x="560" 
d="M60 4q11 4 15 31.5t5 74.5v480q-1 47 -5 74.5t-15 31.5v4h401v-43h-4q-5 14 -45 20.5t-86 6.5h-204v-306h157q95 0 102 19h4v-55h-4q-5 13 -30 16t-72 3h-157v-345h263q42 0 84 9.5t46 23.5h5v-49h-460v4zM343.5 824q25.5 -22 35.5 -38l-35 -20q-16 41 -64 86
q-48 -45 -64 -86l-35 20q10 16 35.5 38t63.5 46q38 -24 63.5 -46z" />
    <glyph glyph-name="edieresis" unicode="&#xeb;" horiz-adv-x="560" 
d="M60 4q11 4 15 31.5t5 74.5v480q-1 47 -5 74.5t-15 31.5v4h401v-43h-4q-5 14 -45 20.5t-86 6.5h-204v-306h157q95 0 102 19h4v-55h-4q-5 13 -30 16t-72 3h-157v-345h263q42 0 84 9.5t46 23.5h5v-49h-460v4zM195.5 795.5q-9.5 9.5 -9.5 23.5t9.5 23t23.5 9q13 0 22.5 -9
t9.5 -23t-9 -23.5t-23 -9.5t-23.5 9.5zM314.5 795.5q-9.5 9.5 -9.5 23.5t9.5 23t23.5 9q13 0 22.5 -9t9.5 -23t-9 -23.5t-23 -9.5t-23.5 9.5z" />
    <glyph glyph-name="igrave" unicode="&#xec;" horiz-adv-x="201" 
d="M119 766q-38 24 -66 52t-43 52h55q10 -27 28 -51.5t36 -42.5zM122 133q0 -56 3 -90t16 -39v-4h-81v4q13 5 16.5 39t3.5 90v432v1q0 56 -3.5 90.5t-16.5 38.5v5h81v-5q-12 -4 -15.5 -38.5t-3.5 -90.5v-1v-432z" />
    <glyph glyph-name="iacute" unicode="&#xed;" horiz-adv-x="201" 
d="M195 870q-15 -24 -43 -52t-66 -52l-10 10q18 18 36 42.5t28 51.5h55zM141 695q-12 -4 -15.5 -38.5t-3.5 -90.5v-1v-432q0 -56 3 -90t16 -39v-4h-81v4q13 5 16.5 39t3.5 90v432v1q0 56 -3.5 90.5t-16.5 38.5v5h81v-5z" />
    <glyph glyph-name="icircumflex" unicode="&#xee;" horiz-adv-x="202" 
d="M166.5 824q25.5 -22 35.5 -38l-35 -20q-16 41 -64 86q-48 -45 -64 -86l-35 20q10 16 35.5 38t63.5 46q38 -24 63.5 -46zM141 695q-12 -4 -15.5 -38.5t-3.5 -90.5v-1v-432q0 -56 3 -90t16 -39v-4h-81v4q13 5 16.5 39t3.5 90v432v1q0 56 -3.5 90.5t-16.5 38.5v5h81v-5z" />
    <glyph glyph-name="idieresis" unicode="&#xef;" horiz-adv-x="201" 
d="M66 795.5q-9 -9.5 -23 -9.5t-23.5 9.5t-9.5 23.5t9.5 23t23.5 9t23 -9t9 -23t-9 -23.5zM185 842q9 -9 9 -23t-9 -23.5t-23 -9.5t-23.5 9.5t-9.5 23.5t9.5 23t23.5 9t23 -9zM141 695q-12 -4 -15.5 -38.5t-3.5 -90.5v-1v-432q0 -56 3 -90t16 -39v-4h-81v4q13 5 16.5 39
t3.5 90v432v1q0 56 -3.5 90.5t-16.5 38.5v5h81v-5z" />
    <glyph glyph-name="eth" unicode="&#xf0;" horiz-adv-x="692" 
d="M445 666q93 -49 145 -132.5t52 -183.5q0 -101 -48 -184.5t-136.5 -132t-204.5 -48.5q-63 0 -193 15v4q12 5 15.5 39.5t3.5 90.5v144h-49v20h49v267v1q0 56 -3.5 90.5t-15.5 38.5v5q115 15 176 15q116 0 209 -49zM438 47q77 47 116.5 126.5t39.5 176.5q0 96 -43 176
t-124 127t-191 47q-79 0 -115 -8v-394h43v-20h-43v-270q66 -8 132 -8q108 0 185 47z" />
    <glyph glyph-name="ntilde" unicode="&#xf1;" 
d="M596 695q-20 0 -25.5 -35.5t-5.5 -93.5v-566h-51l-404 681v-548q0 -58 5.5 -93.5t25.5 -35.5v-4h-81v4q20 0 25.5 35.5t5.5 93.5v433q0 58 -5.5 93.5t-25.5 35.5v5h89l397 -668v534q0 58 -5.5 93.5t-25.5 35.5v5h81v-5zM436 848q0 -27 -12 -45t-34 -18q-10 0 -18 4.5
t-22 15.5q-15 10 -23 14.5t-17 4.5q-18 0 -26 -11.5t-9 -27.5h-11q0 27 12.5 45t33.5 18q11 0 19.5 -5t24.5 -16q23 -19 36 -19q18 0 26 12.5t8 27.5h12z" />
    <glyph glyph-name="ograve" unicode="&#xf2;" 
d="M204.5 33.5q-82.5 49.5 -131 133.5t-48.5 183t48.5 183t131 133t180.5 49q97 0 179.5 -49t131 -133t48.5 -183t-48.5 -183t-131 -133.5t-179.5 -49.5q-98 0 -180.5 49.5zM545.5 47q69.5 47 107 127.5t37.5 175.5t-37.5 175.5t-107 127.5t-160.5 47t-160.5 -47
t-107.5 -127.5t-38 -175.5t38 -175.5t107.5 -127.5t160.5 -47t160.5 47zM368 818q28 -28 66 -52l10 10q-18 18 -36 42.5t-28 51.5h-55q15 -24 43 -52z" />
    <glyph glyph-name="oacute" unicode="&#xf3;" 
d="M229.5 33.5q-82.5 49.5 -131 133.5t-48.5 183t48.5 183t131 133t180.5 49q97 0 179.5 -49t131 -133t48.5 -183t-48.5 -183t-131 -133.5t-179.5 -49.5q-98 0 -180.5 49.5zM570.5 47q69.5 47 107 127.5t37.5 175.5t-37.5 175.5t-107 127.5t-160.5 47t-160.5 -47
t-107.5 -127.5t-38 -175.5t38 -175.5t107.5 -127.5t160.5 -47t160.5 47zM447 870q-10 -27 -28 -51.5t-36 -42.5l10 -10q38 24 66 52t43 52h-55z" />
    <glyph glyph-name="ocircumflex" unicode="&#xf4;" 
d="M229.5 33.5q-82.5 49.5 -131 133.5t-48.5 183t48.5 183t131 133t180.5 49q97 0 179.5 -49t131 -133t48.5 -183t-48.5 -183t-131 -133.5t-179.5 -49.5q-98 0 -180.5 49.5zM570.5 47q69.5 47 107 127.5t37.5 175.5t-37.5 175.5t-107 127.5t-160.5 47t-160.5 -47
t-107.5 -127.5t-38 -175.5t38 -175.5t107.5 -127.5t160.5 -47t160.5 47zM498.5 824q25.5 -22 35.5 -38l-35 -20q-16 41 -64 86q-48 -45 -64 -86l-35 20q10 16 35.5 38t63.5 46q38 -24 63.5 -46z" />
    <glyph glyph-name="otilde" unicode="&#xf5;" 
d="M229.5 33.5q-82.5 49.5 -131 133.5t-48.5 183t48.5 183t131 133t180.5 49q97 0 179.5 -49t131 -133t48.5 -183t-48.5 -183t-131 -133.5t-179.5 -49.5q-98 0 -180.5 49.5zM570.5 47q69.5 47 107 127.5t37.5 175.5t-37.5 175.5t-107 127.5t-160.5 47t-160.5 -47
t-107.5 -127.5t-38 -175.5t38 -175.5t107.5 -127.5t160.5 -47t160.5 47zM502 848q0 -27 -12 -45t-34 -18q-10 0 -18 4.5t-22 15.5q-15 10 -23 14.5t-17 4.5q-18 0 -26 -11.5t-9 -27.5h-11q0 27 12.5 45t33.5 18q11 0 19.5 -5t24.5 -16q23 -19 36 -19q18 0 26 12.5t8 27.5h12
z" />
    <glyph glyph-name="odieresis" unicode="&#xf6;" 
d="M204.5 33.5q-82.5 49.5 -131 133.5t-48.5 183t48.5 183t131 133t180.5 49q97 0 179.5 -49t131 -133t48.5 -183t-48.5 -183t-131 -133.5t-179.5 -49.5q-98 0 -180.5 49.5zM545.5 47q69.5 47 107 127.5t37.5 175.5t-37.5 175.5t-107 127.5t-160.5 47t-160.5 -47
t-107.5 -127.5t-38 -175.5t38 -175.5t107.5 -127.5t160.5 -47t160.5 47zM302.5 795.5q-9.5 9.5 -9.5 23.5t9.5 23t23.5 9q13 0 22.5 -9t9.5 -23t-9 -23.5t-23 -9.5t-23.5 9.5zM421.5 795.5q-9.5 9.5 -9.5 23.5t9.5 23t23.5 9q13 0 22.5 -9t9.5 -23t-9 -23.5t-23 -9.5
t-23.5 9.5z" />
    <glyph glyph-name="divide" unicode="&#xf7;" horiz-adv-x="405" 
d="M169.5 382.5q-11.5 11.5 -11.5 28.5t11.5 28t28.5 11t28 -11t11 -28t-11 -28.5t-28 -11.5t-28.5 11.5zM355 272h-305v29h305v-29zM169.5 128.5q-11.5 11.5 -11.5 28.5t11.5 28t28.5 11t28 -11t11 -28t-11 -28.5t-28 -11.5t-28.5 11.5z" />
    <glyph glyph-name="oslash" unicode="&#xf8;" horiz-adv-x="819" 
d="M659 613q52 -51 81 -119t29 -144q0 -99 -48.5 -183t-131 -133.5t-179.5 -49.5q-59 0 -112 18l-25 -72h-21l28 79q-67 26 -119.5 77t-81.5 119.5t-29 144.5q0 99 48.5 183t131 133t180.5 49q58 0 111 -18l26 73h21l-28 -80q67 -26 119 -77zM152.5 153.5
q48.5 -87.5 133.5 -126.5l230 654q-51 19 -106 19q-91 0 -160.5 -47t-107.5 -127.5t-38 -175.5q0 -109 48.5 -196.5zM570.5 47q69.5 47 107 127.5t37.5 175.5q0 109 -48 196.5t-133 126.5l-230 -654q51 -19 106 -19q91 0 160.5 47z" />
    <glyph glyph-name="ugrave" unicode="&#xf9;" 
d="M578 133q0 -56 3.5 -90t16.5 -39v-4h-81v4q14 5 18 63q-33 -30 -85 -54.5t-124 -24.5q-133 0 -190 62t-57 181v334v1q0 56 -3.5 90.5t-15.5 38.5v5h81v-5q-13 -4 -16.5 -38.5t-3.5 -90.5v-1v-334q0 -74 16 -124t61 -79.5t128 -29.5q63 0 109 23t69.5 47t31.5 37v28v432v1
q0 56 -3.5 90.5t-15.5 38.5v5h81v-5q-13 -4 -16.5 -38.5t-3.5 -90.5v-1v-432zM301 818q28 -28 66 -52l10 10q-18 18 -36 42.5t-28 51.5h-55q15 -24 43 -52z" />
    <glyph glyph-name="uacute" unicode="&#xfa;" 
d="M578 133q0 -56 3.5 -90t16.5 -39v-4h-81v4q14 5 18 63q-33 -30 -85 -54.5t-124 -24.5q-133 0 -190 62t-57 181v334v1q0 56 -3.5 90.5t-15.5 38.5v5h81v-5q-13 -4 -16.5 -38.5t-3.5 -90.5v-1v-334q0 -74 16 -124t61 -79.5t128 -29.5q63 0 109 23t69.5 47t31.5 37v28v432v1
q0 56 -3.5 90.5t-15.5 38.5v5h81v-5q-13 -4 -16.5 -38.5t-3.5 -90.5v-1v-432zM365 870q-10 -27 -28 -51.5t-36 -42.5l10 -10q38 24 66 52t43 52h-55z" />
    <glyph glyph-name="ucircumflex" unicode="&#xfb;" 
d="M578 133q0 -56 3.5 -90t16.5 -39v-4h-81v4q14 5 18 63q-33 -30 -85 -54.5t-124 -24.5q-133 0 -190 62t-57 181v334v1q0 56 -3.5 90.5t-15.5 38.5v5h81v-5q-13 -4 -16.5 -38.5t-3.5 -90.5v-1v-334q0 -74 16 -124t61 -79.5t128 -29.5q63 0 109 23t69.5 47t31.5 37v28v432v1
q0 56 -3.5 90.5t-15.5 38.5v5h81v-5q-13 -4 -16.5 -38.5t-3.5 -90.5v-1v-432zM404.5 824q25.5 -22 35.5 -38l-35 -20q-16 41 -64 86q-48 -45 -64 -86l-35 20q10 16 35.5 38t63.5 46q38 -24 63.5 -46z" />
    <glyph glyph-name="udieresis" unicode="&#xfc;" 
d="M578 133q0 -56 3.5 -90t16.5 -39v-4h-81v4q14 5 18 63q-33 -30 -85 -54.5t-124 -24.5q-133 0 -190 62t-57 181v334v1q0 56 -3.5 90.5t-15.5 38.5v5h81v-5q-13 -4 -16.5 -38.5t-3.5 -90.5v-1v-334q0 -74 16 -124t61 -79.5t128 -29.5q63 0 109 23t69.5 47t31.5 37v28v432v1
q0 56 -3.5 90.5t-15.5 38.5v5h81v-5q-13 -4 -16.5 -38.5t-3.5 -90.5v-1v-432zM247.5 795.5q-9.5 9.5 -9.5 23.5t9.5 23t23.5 9q13 0 22.5 -9t9.5 -23t-9 -23.5t-23 -9.5t-23.5 9.5zM366.5 795.5q-9.5 9.5 -9.5 23.5t9.5 23t23.5 9q13 0 22.5 -9t9.5 -23t-9 -23.5t-23 -9.5
t-23.5 9.5z" />
    <glyph glyph-name="yacute" unicode="&#xfd;" 
d="M620 695q-16 -5 -39 -50l-270 -562q-16 -37 -16 -56q0 -17 12 -23v-4h-70v4q17 6 44 61l58 122l-246 449q-33 53 -53 59v5h95l-1 -5q-8 -1 -8 -12t10 -33l42 -75l3 -6l182 -332l186 388q13 31 13 48t-12 22l-1 5h71v-5zM386 870q-10 -27 -28 -51.5t-36 -42.5l10 -10
q38 24 66 52t43 52h-55z" />
    <glyph glyph-name="thorn" unicode="&#xfe;" horiz-adv-x="566" 
d="M384.5 589.5q65.5 -30.5 103.5 -86.5t38 -129q0 -72 -37 -127t-103 -85.5t-149 -30.5q-39 0 -74.5 1.5t-41.5 1.5v-1q0 -55 3.5 -89.5t16.5 -39.5v-4h-81v4q12 5 15.5 39.5t3.5 89.5v433v1q0 56 -3.5 90t-15.5 39v4h81v-4q-17 -6 -19 -78q46 2 118 2q79 0 144.5 -30.5z
M415.5 203.5q65.5 61.5 65.5 170.5q0 67 -29 120t-84 83t-128 30q-69 0 -119 -13v-27v-1v-408q64 -16 116 -16q113 0 178.5 61.5z" />
    <glyph glyph-name="ydieresis" unicode="&#xff;" 
d="M620 695q-16 -5 -39 -50l-270 -562q-16 -37 -16 -56q0 -17 12 -23v-4h-70v4q17 6 44 61l58 122l-246 449q-33 53 -53 59v5h95l-1 -5q-8 -1 -8 -12t10 -33l42 -75l3 -6l182 -332l186 388q13 31 13 48t-12 22l-1 5h71v-5zM272.5 795.5q-9.5 9.5 -9.5 23.5t9.5 23t23.5 9
q13 0 22.5 -9t9.5 -23t-9 -23.5t-23 -9.5t-23.5 9.5zM391.5 795.5q-9.5 9.5 -9.5 23.5t9.5 23t23.5 9q13 0 22.5 -9t9.5 -23t-9 -23.5t-23 -9.5t-23.5 9.5z" />
    <glyph glyph-name="Amacron" unicode="&#x100;" horiz-adv-x="709" 
d="M40 4q16 5 36 53l231 569q14 36 14 55q0 12 -4 15v4q23 10 30 16h17l267 -655q22 -50 38 -57v-4h-98v4q12 5 12 22q0 23 -20 72l-46 119h-354l-34 -83q-15 -37 -23 -61.5t-8 -42.5q0 -19 12 -26v-4h-70v4zM510 234l-167 429l-174 -429h341zM413 798h-134v30h134v-30z" />
    <glyph glyph-name="amacron" unicode="&#x101;" horiz-adv-x="709" 
d="M40 4q16 5 36 53l231 569q14 36 14 55q0 12 -4 15v4q23 10 30 16h15l267 -655q22 -50 38 -57v-4h-96v4q12 5 12 22q0 23 -20 72l-46 119h-354l-34 -83q-15 -37 -23 -61.5t-8 -42.5q0 -19 12 -26v-4h-70v4zM510 234l-167 429l-174 -429h341zM409 798h-134v30h134v-30z" />
    <glyph glyph-name="Abreve" unicode="&#x102;" horiz-adv-x="709" 
d="M40 4q16 5 36 53l231 569q14 36 14 55q0 12 -4 15v4q23 10 30 16h17l267 -655q22 -50 38 -57v-4h-98v4q12 5 12 22q0 23 -20 72l-46 119h-354l-34 -83q-15 -37 -23 -61.5t-8 -42.5q0 -19 12 -26v-4h-70v4zM510 234l-167 429l-174 -429h341zM308 778.5q-22 10.5 -37 29
t-15 42.5h31q0 -32 18.5 -49t43.5 -17t42 17t17 49h33q0 -36 -29.5 -59t-62.5 -23q-19 0 -41 10.5z" />
    <glyph glyph-name="abreve" unicode="&#x103;" horiz-adv-x="709" 
d="M40 4q16 5 36 53l231 569q14 36 14 55q0 12 -4 15v4q23 10 30 16h15l267 -655q22 -50 38 -57v-4h-96v4q12 5 12 22q0 23 -20 72l-46 119h-354l-34 -83q-15 -37 -23 -61.5t-8 -42.5q0 -19 12 -26v-4h-70v4zM510 234l-167 429l-174 -429h341zM307 778.5q-22 10.5 -37 29
t-15 42.5h31q0 -32 18.5 -49t43.5 -17t42 17t17 49h33q0 -36 -29.5 -59t-62.5 -23q-19 0 -41 10.5z" />
    <glyph glyph-name="Aogonek" unicode="&#x104;" horiz-adv-x="709" 
d="M585 -60q0 -19 10 -31t31 -12v-13q-32 0 -53.5 14t-21.5 40q0 34 47 62h-27v4q12 5 12 22q0 23 -20 72l-46 119h-354l-34 -83q-15 -37 -23 -61.5t-8 -42.5q0 -19 12 -26v-4h-70v4q16 5 36 53l231 569q14 36 14 55q0 12 -4 15v4q23 10 30 16h17l267 -655q22 -50 38 -57v-4
h-45q-39 -28 -39 -60zM510 234l-167 429l-174 -429h341z" />
    <glyph glyph-name="aogonek" unicode="&#x105;" horiz-adv-x="709" 
d="M602 -60q0 -19 10 -31t31 -12v-13q-32 0 -53.5 14t-21.5 40q0 34 47 62h-44v4q12 5 12 22q0 23 -20 72l-46 119h-354l-34 -83q-15 -37 -23 -61.5t-8 -42.5q0 -19 12 -26v-4h-70v4q16 5 36 53l231 569q14 36 14 55q0 12 -4 15v4q23 10 30 16h15l267 -655q22 -50 38 -57v-4
h-26q-39 -28 -39 -60zM510 234l-167 429l-174 -429h341z" />
    <glyph glyph-name="Cacute" unicode="&#x106;" horiz-adv-x="749" 
d="M229.5 35q-82.5 49 -131 133t-48.5 183t48.5 183t131 133t180.5 49q94 0 167.5 -39t122.5 -107v-7h-46q-23 63 -91.5 100t-152.5 37q-91 0 -162 -47t-110.5 -127t-39.5 -175t39.5 -175.5t110.5 -128t162 -47.5q82 0 149 40t108 108l37 16l5 -4q-46 -81 -126 -127.5
t-173 -46.5q-98 0 -180.5 49zM465 870q-10 -27 -28 -51.5t-36 -42.5l10 -10q38 24 66 52t43 52h-55z" />
    <glyph glyph-name="cacute" unicode="&#x107;" horiz-adv-x="749" 
d="M229.5 35q-82.5 49 -131 133t-48.5 183t48.5 183t131 133t180.5 49q94 0 167.5 -39t122.5 -107v-7h-46q-23 63 -91.5 100t-152.5 37q-91 0 -162 -47t-110.5 -127t-39.5 -175t39.5 -175.5t110.5 -128t162 -47.5q82 0 149 40t108 108l37 16l5 -4q-46 -81 -126 -127.5
t-173 -46.5q-98 0 -180.5 49zM464 870q-10 -27 -28 -51.5t-36 -42.5l10 -10q38 24 66 52t43 52h-55z" />
    <glyph glyph-name="Ccaron" unicode="&#x10c;" horiz-adv-x="749" 
d="M229.5 35q-82.5 49 -131 133t-48.5 183t48.5 183t131 133t180.5 49q94 0 167.5 -39t122.5 -107v-7h-46q-23 63 -91.5 100t-152.5 37q-91 0 -162 -47t-110.5 -127t-39.5 -175t39.5 -175.5t110.5 -128t162 -47.5q82 0 149 40t108 108l37 16l5 -4q-46 -81 -126 -127.5
t-173 -46.5q-98 0 -180.5 49zM525 850q-10 -16 -35.5 -38t-63.5 -46q-38 24 -63.5 46t-35.5 38l35 20q16 -41 64 -86q48 45 64 86z" />
    <glyph glyph-name="ccaron" unicode="&#x10d;" horiz-adv-x="749" 
d="M229.5 35q-82.5 49 -131 133t-48.5 183t48.5 183t131 133t180.5 49q94 0 167.5 -39t122.5 -107v-7h-46q-23 63 -91.5 100t-152.5 37q-91 0 -162 -47t-110.5 -127t-39.5 -175t39.5 -175.5t110.5 -128t162 -47.5q82 0 149 40t108 108l37 16l5 -4q-46 -81 -126 -127.5
t-173 -46.5q-98 0 -180.5 49zM525 850q-10 -16 -35.5 -38t-63.5 -46q-38 24 -63.5 46t-35.5 38l35 20q16 -41 64 -86q48 45 64 86z" />
    <glyph glyph-name="Dcaron" unicode="&#x10e;" horiz-adv-x="692" 
d="M445 666q93 -49 145 -132.5t52 -183.5q0 -101 -48 -184.5t-136.5 -132t-204.5 -48.5q-63 0 -193 15v4q12 5 15.5 39.5t3.5 90.5v431v1q0 56 -3.5 90.5t-15.5 38.5v5q115 15 176 15q116 0 209 -49zM438 47q77 47 116.5 126.5t39.5 176.5q0 96 -43 176t-124 127t-191 47
q-79 0 -115 -8v-684q66 -8 132 -8q108 0 185 47zM381 850q-10 -16 -35.5 -38t-63.5 -46q-38 24 -63.5 46t-35.5 38l35 20q16 -41 64 -86q48 45 64 86z" />
    <glyph glyph-name="dcaron" unicode="&#x10f;" horiz-adv-x="692" 
d="M445 666q93 -49 145 -132.5t52 -183.5q0 -101 -48 -184.5t-136.5 -132t-204.5 -48.5q-63 0 -193 15v4q12 5 15.5 39.5t3.5 90.5v431v1q0 56 -3.5 90.5t-15.5 38.5v5q115 15 176 15q116 0 209 -49zM438 47q77 47 116.5 126.5t39.5 176.5q0 96 -43 176t-124 127t-191 47
q-79 0 -115 -8v-684q66 -8 132 -8q108 0 185 47zM396 850q-10 -16 -35.5 -38t-63.5 -46q-38 24 -63.5 46t-35.5 38l35 20q16 -41 64 -86q48 45 64 86z" />
    <glyph glyph-name="Dcroat" unicode="&#x110;" horiz-adv-x="692" 
d="M445 666q93 -49 145 -132.5t52 -183.5q0 -101 -48 -184.5t-136.5 -132t-204.5 -48.5q-63 0 -193 15v4q12 5 15.5 39.5t3.5 90.5v144h-49v20h49v267v1q0 56 -3.5 90.5t-15.5 38.5v5q115 15 176 15q116 0 209 -49zM438 47q77 47 116.5 126.5t39.5 176.5q0 96 -43 176
t-124 127t-191 47q-79 0 -115 -8v-394h43v-20h-43v-270q66 -8 132 -8q108 0 185 47z" />
    <glyph glyph-name="dcroat" unicode="&#x111;" horiz-adv-x="692" 
d="M445 666q93 -49 145 -132.5t52 -183.5q0 -101 -48 -184.5t-136.5 -132t-204.5 -48.5q-63 0 -193 15v4q12 5 15.5 39.5t3.5 90.5v144h-49v20h49v267v1q0 56 -3.5 90.5t-15.5 38.5v5q115 15 176 15q116 0 209 -49zM438 47q77 47 116.5 126.5t39.5 176.5q0 96 -43 176
t-124 127t-191 47q-79 0 -115 -8v-394h43v-20h-43v-270q66 -8 132 -8q108 0 185 47z" />
    <glyph glyph-name="Emacron" unicode="&#x112;" horiz-adv-x="560" 
d="M60 4q11 4 15 31.5t5 74.5v480q-1 47 -5 74.5t-15 31.5v4h401v-43h-4q-5 14 -45 20.5t-86 6.5h-204v-306h157q95 0 102 19h4v-55h-4q-5 13 -30 16t-72 3h-157v-345h263q42 0 84 9.5t46 23.5h5v-49h-460v4zM361 798h-134v30h134v-30z" />
    <glyph glyph-name="emacron" unicode="&#x113;" horiz-adv-x="560" 
d="M60 4q11 4 15 31.5t5 74.5v480q-1 47 -5 74.5t-15 31.5v4h401v-43h-4q-5 14 -45 20.5t-86 6.5h-204v-306h157q95 0 102 19h4v-55h-4q-5 13 -30 16t-72 3h-157v-345h263q42 0 84 9.5t46 23.5h5v-49h-460v4zM357 798h-134v30h134v-30z" />
    <glyph glyph-name="Edotaccent" unicode="&#x116;" horiz-adv-x="560" 
d="M60 4q11 4 15 31.5t5 74.5v480q-1 47 -5 74.5t-15 31.5v4h401v-43h-4q-5 14 -45 20.5t-86 6.5h-204v-306h157q95 0 102 19h4v-55h-4q-5 13 -30 16t-72 3h-157v-345h263q42 0 84 9.5t46 23.5h5v-49h-460v4zM251.5 795.5q-9.5 9.5 -9.5 23.5t9.5 23t23.5 9q13 0 22.5 -9
t9.5 -23t-9 -23.5t-23 -9.5t-23.5 9.5z" />
    <glyph glyph-name="edotaccent" unicode="&#x117;" horiz-adv-x="560" 
d="M60 4q11 4 15 31.5t5 74.5v480q-1 47 -5 74.5t-15 31.5v4h401v-43h-4q-5 14 -45 20.5t-86 6.5h-204v-306h157q95 0 102 19h4v-55h-4q-5 13 -30 16t-72 3h-157v-345h263q42 0 84 9.5t46 23.5h5v-49h-460v4zM247.5 795.5q-9.5 9.5 -9.5 23.5t9.5 23t23.5 9q13 0 22.5 -9
t9.5 -23t-9 -23.5t-23 -9.5t-23.5 9.5z" />
    <glyph glyph-name="Eogonek" unicode="&#x118;" horiz-adv-x="560" 
d="M457 -60q0 -19 10 -31t31 -12v-13q-32 0 -53.5 14t-21.5 40q0 34 47 62h-410v4q11 4 15 31.5t5 74.5v480q-1 47 -5 74.5t-15 31.5v4h401v-43h-4q-5 14 -45 20.5t-86 6.5h-204v-306h157q95 0 102 19h4v-55h-4q-5 13 -30 16t-72 3h-157v-345h263q42 0 84 9.5t46 23.5h5v-49
h-24q-39 -28 -39 -60z" />
    <glyph glyph-name="eogonek" unicode="&#x119;" horiz-adv-x="560" 
d="M471 -60q0 -19 10 -31t31 -12v-13q-32 0 -53.5 14t-21.5 40q0 34 47 62h-424v4q11 4 15 31.5t5 74.5v480q-1 47 -5 74.5t-15 31.5v4h401v-43h-4q-5 14 -45 20.5t-86 6.5h-204v-306h157q95 0 102 19h4v-55h-4q-5 13 -30 16t-72 3h-157v-345h263q42 0 84 9.5t46 23.5h5v-49
h-10q-39 -28 -39 -60z" />
    <glyph glyph-name="Ecaron" unicode="&#x11a;" horiz-adv-x="560" 
d="M60 4q11 4 15 31.5t5 74.5v480q-1 47 -5 74.5t-15 31.5v4h401v-43h-4q-5 14 -45 20.5t-86 6.5h-204v-306h157q95 0 102 19h4v-55h-4q-5 13 -30 16t-72 3h-157v-345h263q42 0 84 9.5t46 23.5h5v-49h-460v4zM396 850q-10 -16 -35.5 -38t-63.5 -46q-38 24 -63.5 46t-35.5 38
l35 20q16 -41 64 -86q48 45 64 86z" />
    <glyph glyph-name="ecaron" unicode="&#x11b;" horiz-adv-x="560" 
d="M60 4q11 4 15 31.5t5 74.5v480q-1 47 -5 74.5t-15 31.5v4h401v-43h-4q-5 14 -45 20.5t-86 6.5h-204v-306h157q95 0 102 19h4v-55h-4q-5 13 -30 16t-72 3h-157v-345h263q42 0 84 9.5t46 23.5h5v-49h-460v4zM387 850q-10 -16 -35.5 -38t-63.5 -46q-38 24 -63.5 46t-35.5 38
l35 20q16 -41 64 -86q48 45 64 86z" />
    <glyph glyph-name="uni0122" unicode="&#x122;" horiz-adv-x="767" 
d="M727 435v-5q-12 -4 -15.5 -38.5t-3.5 -90.5v-1v-105q0 -34 9 -55v-12q-12 -6 -30 -21q-45 -52 -121 -87t-156 -35q-98 0 -180.5 49t-131 133t-48.5 183t48.5 183t131 133t180.5 49q94 0 167.5 -39t122.5 -107v-7h-46q-23 63 -92 100.5t-152 37.5q-91 0 -160.5 -47.5
t-107 -127.5t-37.5 -175t37.5 -175.5t107 -127.5t160.5 -47q82 0 148.5 39t107.5 106v155v1q0 56 -3.5 90.5t-16.5 38.5v5h81zM409 -51h38l-63 -141h-12z" />
    <glyph glyph-name="uni0123" unicode="&#x123;" 
d="M727 435v-5q-12 -4 -15.5 -38.5t-3.5 -90.5v-1v-105q0 -34 9 -55v-12q-12 -6 -30 -21q-45 -52 -121 -87t-156 -35q-98 0 -180.5 49t-131 133t-48.5 183t48.5 183t131 133t180.5 49q94 0 167.5 -39t122.5 -107v-7h-46q-23 63 -92 100.5t-152 37.5q-91 0 -160.5 -47.5
t-107 -127.5t-37.5 -175t37.5 -175.5t107 -127.5t160.5 -47q82 0 148.5 39t107.5 106v155v1q0 56 -3.5 90.5t-16.5 38.5v5h81zM442 806q6 -7 6 -16q0 -10 -7.5 -17t-18.5 -6q-3 0 -7 2q-17 6 -17 28q0 24 9 36.5t32 34.5l5 -6q-25 -23 -29 -50q6 2 11 2q10 -1 16 -8z" />
    <glyph glyph-name="Imacron" unicode="&#x12a;" horiz-adv-x="202" 
d="M120 133q0 -56 3 -90t16 -39v-4h-81v4q13 5 16.5 39t3.5 90v432v1q0 56 -3.5 90.5t-16.5 38.5v5h81v-5q-12 -4 -15.5 -38.5t-3.5 -90.5v-1v-432zM168 798h-134v30h134v-30z" />
    <glyph glyph-name="imacron" unicode="&#x12b;" horiz-adv-x="202" 
d="M168 828v-30h-134v30h134zM141 695q-12 -4 -15.5 -38.5t-3.5 -90.5v-1v-432q0 -56 3 -90t16 -39v-4h-81v4q13 5 16.5 39t3.5 90v432v1q0 56 -3.5 90.5t-16.5 38.5v5h81v-5z" />
    <glyph glyph-name="Iogonek" unicode="&#x12e;" horiz-adv-x="198" 
d="M119 133q0 -56 3 -90t16 -39v-4h-15q-39 -28 -39 -60q0 -19 10 -31t31 -12v-13q-32 0 -53.5 14t-21.5 40q0 34 47 62h-40v4q13 5 16.5 39t3.5 90v432v1q0 56 -3.5 90.5t-16.5 38.5v5h81v-5q-12 -4 -15.5 -38.5t-3.5 -90.5v-1v-432z" />
    <glyph glyph-name="iogonek" unicode="&#x12f;" horiz-adv-x="201" 
d="M122 133q0 -56 3 -90t16 -39v-4h-18q-39 -28 -39 -60q0 -19 10 -31t31 -12v-13q-32 0 -53.5 14t-21.5 40q0 34 47 62h-37v4q13 5 16.5 39t3.5 90v432v1q0 56 -3.5 90.5t-16.5 38.5v5h81v-5q-12 -4 -15.5 -38.5t-3.5 -90.5v-1v-432z" />
    <glyph glyph-name="uni0136" unicode="&#x136;" horiz-adv-x="665" 
d="M581 37q31 -28 44 -32v-5h-64l-361 382l-78 -67v-181q0 -56 3.5 -90.5t16.5 -38.5v-5h-82v5q13 4 16.5 38.5t3.5 90.5v431v1q0 56 -3.5 90.5t-16.5 38.5v5h82v-5q-13 -4 -16.5 -38.5t-3.5 -90.5v-1v-228l424 363h47v-5q-17 -5 -52.5 -27.5t-70.5 -54.5h-1l-241 -207
l288 -304q34 -37 65 -65zM281 -51h38l-63 -141h-12z" />
    <glyph glyph-name="uni0137" unicode="&#x137;" 
d="M581 37q31 -28 44 -32v-5h-64l-361 382l-78 -67v-181q0 -56 3.5 -90.5t16.5 -38.5v-5h-82v5q13 4 16.5 38.5t3.5 90.5v431v1q0 56 -3.5 90.5t-16.5 38.5v5h82v-5q-13 -4 -16.5 -38.5t-3.5 -90.5v-1v-228l424 363h47v-5q-17 -5 -52.5 -27.5t-70.5 -54.5h-1l-241 -207
l288 -304q34 -37 65 -65zM305 -51h38l-63 -141h-12z" />
    <glyph glyph-name="Lacute" unicode="&#x139;" horiz-adv-x="564" 
d="M524 49v-49h-7h-128h-325v4q13 5 16.5 39t3.5 90v432v1q0 56 -3.5 90.5t-16.5 38.5v5h81v-5q-12 -4 -15.5 -38.5t-3.5 -90.5v-1v-432q0 -43 1.5 -72t7.5 -45h254q42 0 83.5 9.5t46.5 23.5h5zM124 870q-10 -27 -28 -51.5t-36 -42.5l10 -10q38 24 66 52t43 52h-55z" />
    <glyph glyph-name="lacute" unicode="&#x13a;" 
d="M520 49v-49h-7h-128h-325v4q13 5 16.5 39t3.5 90v432v1q0 56 -3.5 90.5t-16.5 38.5v5h81v-5q-12 -4 -15.5 -38.5t-3.5 -90.5v-1v-432q0 -43 1.5 -72t7.5 -45h254q42 0 83.5 9.5t46.5 23.5h5zM128 870q-10 -27 -28 -51.5t-36 -42.5l10 -10q38 24 66 52t43 52h-55z" />
    <glyph glyph-name="uni013B" unicode="&#x13b;" horiz-adv-x="560" 
d="M520 49v-49h-7h-128h-325v4q13 5 16.5 39t3.5 90v432v1q0 56 -3.5 90.5t-16.5 38.5v5h81v-5q-12 -4 -15.5 -38.5t-3.5 -90.5v-1v-432q0 -43 1.5 -72t7.5 -45h254q42 0 83.5 9.5t46.5 23.5h5zM272 -51h38l-63 -141h-12z" />
    <glyph glyph-name="uni013C" unicode="&#x13c;" 
d="M520 49v-49h-7h-128h-325v4q13 5 16.5 39t3.5 90v432v1q0 56 -3.5 90.5t-16.5 38.5v5h81v-5q-12 -4 -15.5 -38.5t-3.5 -90.5v-1v-432q0 -43 1.5 -72t7.5 -45h254q42 0 83.5 9.5t46.5 23.5h5zM281 -51h38l-63 -141h-12z" />
    <glyph glyph-name="Lcaron" unicode="&#x13d;" horiz-adv-x="560" 
d="M520 49v-49h-7h-128h-325v4q13 5 16.5 39t3.5 90v432v1q0 56 -3.5 90.5t-16.5 38.5v5h81v-5q-12 -4 -15.5 -38.5t-3.5 -90.5v-1v-432q0 -43 1.5 -72t7.5 -45h254q42 0 83.5 9.5t46.5 23.5h5zM209 698h38l-63 -141h-12z" />
    <glyph glyph-name="lcaron" unicode="&#x13e;" 
d="M520 49v-49h-7h-128h-325v4q13 5 16.5 39t3.5 90v432v1q0 56 -3.5 90.5t-16.5 38.5v5h81v-5q-12 -4 -15.5 -38.5t-3.5 -90.5v-1v-432q0 -43 1.5 -72t7.5 -45h254q42 0 83.5 9.5t46.5 23.5h5zM209 700h38l-63 -141h-12z" />
    <glyph glyph-name="Lslash" unicode="&#x141;" horiz-adv-x="560" 
d="M520 49v-49h-7h-128h-325v4q13 5 16.5 39t3.5 90v86l-48 -47l-21 21l69 67v305v1q0 56 -3.5 90.5t-16.5 38.5v5h81v-5q-12 -4 -15.5 -38.5t-3.5 -90.5v-1v-264l57 56l20 -21l-77 -76v-127q0 -43 1.5 -72t7.5 -45h254q42 0 83.5 9.5t46.5 23.5h5z" />
    <glyph glyph-name="lslash" unicode="&#x142;" horiz-adv-x="560" 
d="M520 49v-49h-7h-128h-325v4q13 5 16.5 39t3.5 90v86l-48 -47l-21 21l69 67v305v1q0 56 -3.5 90.5t-16.5 38.5v5h81v-5q-12 -4 -15.5 -38.5t-3.5 -90.5v-1v-264l57 56l20 -21l-77 -76v-127q0 -43 1.5 -72t7.5 -45h254q42 0 83.5 9.5t46.5 23.5h5z" />
    <glyph glyph-name="Nacute" unicode="&#x143;" horiz-adv-x="656" 
d="M596 695q-20 0 -25.5 -35.5t-5.5 -93.5v-566h-51l-404 681v-548q0 -58 5.5 -93.5t25.5 -35.5v-4h-81v4q20 0 25.5 35.5t5.5 93.5v433q0 58 -5.5 93.5t-25.5 35.5v5h89l397 -668v534q0 58 -5.5 93.5t-25.5 35.5v5h81v-5zM371 870q-10 -27 -28 -51.5t-36 -42.5l10 -10
q38 24 66 52t43 52h-55z" />
    <glyph glyph-name="nacute" unicode="&#x144;" 
d="M596 695q-20 0 -25.5 -35.5t-5.5 -93.5v-566h-51l-404 681v-548q0 -58 5.5 -93.5t25.5 -35.5v-4h-81v4q20 0 25.5 35.5t5.5 93.5v433q0 58 -5.5 93.5t-25.5 35.5v5h89l397 -668v534q0 58 -5.5 93.5t-25.5 35.5v5h81v-5zM363 870q-10 -27 -28 -51.5t-36 -42.5l10 -10
q38 24 66 52t43 52h-55z" />
    <glyph glyph-name="uni0145" unicode="&#x145;" horiz-adv-x="656" 
d="M596 695q-20 0 -25.5 -35.5t-5.5 -93.5v-566h-51l-404 681v-548q0 -58 5.5 -93.5t25.5 -35.5v-4h-81v4q20 0 25.5 35.5t5.5 93.5v433q0 58 -5.5 93.5t-25.5 35.5v5h89l397 -668v534q0 58 -5.5 93.5t-25.5 35.5v5h81v-5zM313 -51h38l-63 -141h-12z" />
    <glyph glyph-name="uni0146" unicode="&#x146;" 
d="M596 695q-20 0 -25.5 -35.5t-5.5 -93.5v-566h-51l-404 681v-548q0 -58 5.5 -93.5t25.5 -35.5v-4h-81v4q20 0 25.5 35.5t5.5 93.5v433q0 58 -5.5 93.5t-25.5 35.5v5h89l397 -668v534q0 58 -5.5 93.5t-25.5 35.5v5h81v-5zM310 -51h38l-63 -141h-12z" />
    <glyph glyph-name="Ncaron" unicode="&#x147;" horiz-adv-x="656" 
d="M596 695q-20 0 -25.5 -35.5t-5.5 -93.5v-566h-51l-404 681v-548q0 -58 5.5 -93.5t25.5 -35.5v-4h-81v4q20 0 25.5 35.5t5.5 93.5v433q0 58 -5.5 93.5t-25.5 35.5v5h89l397 -668v534q0 58 -5.5 93.5t-25.5 35.5v5h81v-5zM443 850q-10 -16 -35.5 -38t-63.5 -46
q-38 24 -63.5 46t-35.5 38l35 20q16 -41 64 -86q48 45 64 86z" />
    <glyph glyph-name="ncaron" unicode="&#x148;" 
d="M596 695q-20 0 -25.5 -35.5t-5.5 -93.5v-566h-51l-404 681v-548q0 -58 5.5 -93.5t25.5 -35.5v-4h-81v4q20 0 25.5 35.5t5.5 93.5v433q0 58 -5.5 93.5t-25.5 35.5v5h89l397 -668v534q0 58 -5.5 93.5t-25.5 35.5v5h81v-5zM448 850q-10 -16 -35.5 -38t-63.5 -46
q-38 24 -63.5 46t-35.5 38l35 20q16 -41 64 -86q48 45 64 86z" />
    <glyph glyph-name="Eng" unicode="&#x14a;" horiz-adv-x="656" 
d="M596 695q-20 0 -25.5 -35.5t-5.5 -93.5v-566q5 -22 5 -40q0 -40 -22 -56q-13 -10 -29 -10q-31 0 -60 37l11 8q20 -27 42 -27q13 0 25 9q19 15 19 51q0 16 -3 28h-39l-404 681v-548q0 -58 5.5 -93.5t25.5 -35.5v-4h-81v4q20 0 25.5 35.5t5.5 93.5v433q0 58 -5.5 93.5
t-25.5 35.5v5h89l397 -668v534q0 58 -5.5 93.5t-25.5 35.5v5h81v-5z" />
    <glyph glyph-name="eng" unicode="&#x14b;" horiz-adv-x="656" 
d="M596 695q-20 0 -25.5 -35.5t-5.5 -93.5v-566q5 -22 5 -40q0 -40 -22 -56q-13 -10 -29 -10q-31 0 -60 37l11 8q20 -27 42 -27q13 0 25 9q19 15 19 51q0 16 -3 28h-39l-404 681v-548q0 -58 5.5 -93.5t25.5 -35.5v-4h-81v4q20 0 25.5 35.5t5.5 93.5v433q0 58 -5.5 93.5
t-25.5 35.5v5h89l397 -668v534q0 58 -5.5 93.5t-25.5 35.5v5h81v-5z" />
    <glyph glyph-name="Omacron" unicode="&#x14c;" horiz-adv-x="819" 
d="M229.5 33.5q-82.5 49.5 -131 133.5t-48.5 183t48.5 183t131 133t180.5 49q97 0 179.5 -49t131 -133t48.5 -183t-48.5 -183t-131 -133.5t-179.5 -49.5q-98 0 -180.5 49.5zM570.5 47q69.5 47 107 127.5t37.5 175.5t-37.5 175.5t-107 127.5t-160.5 47t-160.5 -47
t-107.5 -127.5t-38 -175.5t38 -175.5t107.5 -127.5t160.5 -47t160.5 47zM477 798h-134v30h134v-30z" />
    <glyph glyph-name="omacron" unicode="&#x14d;" 
d="M229.5 33.5q-82.5 49.5 -131 133.5t-48.5 183t48.5 183t131 133t180.5 49q97 0 179.5 -49t131 -133t48.5 -183t-48.5 -183t-131 -133.5t-179.5 -49.5q-98 0 -180.5 49.5zM570.5 47q69.5 47 107 127.5t37.5 175.5t-37.5 175.5t-107 127.5t-160.5 47t-160.5 -47
t-107.5 -127.5t-38 -175.5t38 -175.5t107.5 -127.5t160.5 -47t160.5 47zM477 798h-134v30h134v-30z" />
    <glyph glyph-name="Ohungarumlaut" unicode="&#x150;" horiz-adv-x="819" 
d="M229.5 33.5q-82.5 49.5 -131 133.5t-48.5 183t48.5 183t131 133t180.5 49q97 0 179.5 -49t131 -133t48.5 -183t-48.5 -183t-131 -133.5t-179.5 -49.5q-98 0 -180.5 49.5zM570.5 47q69.5 47 107 127.5t37.5 175.5t-37.5 175.5t-107 127.5t-160.5 47t-160.5 -47
t-107.5 -127.5t-38 -175.5t38 -175.5t107.5 -127.5t160.5 -47t160.5 47zM429 870h23l-77 -104h-23zM508 870h23l-77 -104h-23z" />
    <glyph glyph-name="ohungarumlaut" unicode="&#x151;" 
d="M204.5 33.5q-82.5 49.5 -131 133.5t-48.5 183t48.5 183t131 133t180.5 49q97 0 179.5 -49t131 -133t48.5 -183t-48.5 -183t-131 -133.5t-179.5 -49.5q-98 0 -180.5 49.5zM545.5 47q69.5 47 107 127.5t37.5 175.5t-37.5 175.5t-107 127.5t-160.5 47t-160.5 -47
t-107.5 -127.5t-38 -175.5t38 -175.5t107.5 -127.5t160.5 -47t160.5 47zM421 870h23l-77 -104h-23zM500 870h23l-77 -104h-23z" />
    <glyph glyph-name="OE" unicode="&#x152;" horiz-adv-x="1207" 
d="M1167 49v-49h-460v4q11 4 15 31.5t5 74.5v68q-46 -88 -131 -141t-186 -53q-98 0 -180.5 49.5t-131 133.5t-48.5 183t48.5 183t131 133t180.5 49q101 0 186 -52.5t131 -140.5v68q-1 47 -5 74.5t-15 31.5v4h401v-43h-4q-5 14 -45 20.5t-86 6.5h-204v-306h157q95 0 102 19h4
v-55h-4q-5 13 -30 16t-72 3h-157v-345h263q42 0 84 9.5t46 23.5h5zM570.5 47q69.5 47 107 127.5t37.5 175.5t-37.5 175.5t-107 127.5t-160.5 47t-160.5 -47t-107.5 -127.5t-38 -175.5t38 -175.5t107.5 -127.5t160.5 -47t160.5 47z" />
    <glyph glyph-name="oe" unicode="&#x153;" horiz-adv-x="1207" 
d="M1167 49v-49h-460v4q11 4 15 31.5t5 74.5v68q-46 -88 -131 -141t-186 -53q-98 0 -180.5 49.5t-131 133.5t-48.5 183t48.5 183t131 133t180.5 49q101 0 186 -52.5t131 -140.5v68q-1 47 -5 74.5t-15 31.5v4h401v-43h-4q-5 14 -45 20.5t-86 6.5h-204v-306h157q95 0 102 19h4
v-55h-4q-5 13 -30 16t-72 3h-157v-345h263q42 0 84 9.5t46 23.5h5zM570.5 47q69.5 47 107 127.5t37.5 175.5t-37.5 175.5t-107 127.5t-160.5 47t-160.5 -47t-107.5 -127.5t-38 -175.5t38 -175.5t107.5 -127.5t160.5 -47t160.5 47z" />
    <glyph glyph-name="Racute" unicode="&#x154;" horiz-adv-x="618" 
d="M578 5v-5h-64l-217 229q-25 -4 -59 -4q-83 0 -116 3v-95q0 -55 3.5 -89.5t15.5 -39.5v-4h-81v4q13 5 16.5 39.5t3.5 89.5v432v1q0 56 -3.5 90.5t-16.5 38.5v5q72 11 180 11q79 0 144.5 -30t103.5 -85t38 -128q0 -84 -50.5 -145t-136.5 -85l130 -136q83 -89 109 -97z
M156.5 243.5q32.5 -7.5 81.5 -7.5q113 0 178 61.5t65 170.5q0 67 -29 120t-84 83t-128 30q-74 0 -118 -7v-443q2 0 34.5 -7.5zM293 870q-10 -27 -28 -51.5t-36 -42.5l10 -10q38 24 66 52t43 52h-55z" />
    <glyph glyph-name="racute" unicode="&#x155;" 
d="M578 5v-5h-64l-217 229q-25 -4 -59 -4q-83 0 -116 3v-95q0 -55 3.5 -89.5t15.5 -39.5v-4h-81v4q13 5 16.5 39.5t3.5 89.5v432v1q0 56 -3.5 90.5t-16.5 38.5v5q72 11 180 11q79 0 144.5 -30t103.5 -85t38 -128q0 -84 -50.5 -145t-136.5 -85l130 -136q83 -89 109 -97z
M156.5 243.5q32.5 -7.5 81.5 -7.5q113 0 178 61.5t65 170.5q0 67 -29 120t-84 83t-128 30q-74 0 -118 -7v-443q2 0 34.5 -7.5zM291 870q-10 -27 -28 -51.5t-36 -42.5l10 -10q38 24 66 52t43 52h-55z" />
    <glyph glyph-name="uni0156" unicode="&#x156;" horiz-adv-x="618" 
d="M578 5v-5h-64l-217 229q-25 -4 -59 -4q-83 0 -116 3v-95q0 -55 3.5 -89.5t15.5 -39.5v-4h-81v4q13 5 16.5 39.5t3.5 89.5v432v1q0 56 -3.5 90.5t-16.5 38.5v5q72 11 180 11q79 0 144.5 -30t103.5 -85t38 -128q0 -84 -50.5 -145t-136.5 -85l130 -136q83 -89 109 -97z
M156.5 243.5q32.5 -7.5 81.5 -7.5q113 0 178 61.5t65 170.5q0 67 -29 120t-84 83t-128 30q-74 0 -118 -7v-443q2 0 34.5 -7.5zM256 -51h38l-63 -141h-12z" />
    <glyph glyph-name="uni0157" unicode="&#x157;" 
d="M578 5v-5h-64l-217 229q-25 -4 -59 -4q-83 0 -116 3v-95q0 -55 3.5 -89.5t15.5 -39.5v-4h-81v4q13 5 16.5 39.5t3.5 89.5v432v1q0 56 -3.5 90.5t-16.5 38.5v5q72 11 180 11q79 0 144.5 -30t103.5 -85t38 -128q0 -84 -50.5 -145t-136.5 -85l130 -136q83 -89 109 -97z
M156.5 243.5q32.5 -7.5 81.5 -7.5q113 0 178 61.5t65 170.5q0 67 -29 120t-84 83t-128 30q-74 0 -118 -7v-443q2 0 34.5 -7.5zM273 -51h38l-63 -141h-12z" />
    <glyph glyph-name="Rcaron" unicode="&#x158;" horiz-adv-x="618" 
d="M578 5v-5h-64l-217 229q-25 -4 -59 -4q-83 0 -116 3v-95q0 -55 3.5 -89.5t15.5 -39.5v-4h-81v4q13 5 16.5 39.5t3.5 89.5v432v1q0 56 -3.5 90.5t-16.5 38.5v5q72 11 180 11q79 0 144.5 -30t103.5 -85t38 -128q0 -84 -50.5 -145t-136.5 -85l130 -136q83 -89 109 -97z
M156.5 243.5q32.5 -7.5 81.5 -7.5q113 0 178 61.5t65 170.5q0 67 -29 120t-84 83t-128 30q-74 0 -118 -7v-443q2 0 34.5 -7.5zM355 850q-10 -16 -35.5 -38t-63.5 -46q-38 24 -63.5 46t-35.5 38l35 20q16 -41 64 -86q48 45 64 86z" />
    <glyph glyph-name="rcaron" unicode="&#x159;" 
d="M578 5v-5h-64l-217 229q-25 -4 -59 -4q-83 0 -116 3v-95q0 -55 3.5 -89.5t15.5 -39.5v-4h-81v4q13 5 16.5 39.5t3.5 89.5v432v1q0 56 -3.5 90.5t-16.5 38.5v5q72 11 180 11q79 0 144.5 -30t103.5 -85t38 -128q0 -84 -50.5 -145t-136.5 -85l130 -136q83 -89 109 -97z
M156.5 243.5q32.5 -7.5 81.5 -7.5q113 0 178 61.5t65 170.5q0 67 -29 120t-84 83t-128 30q-74 0 -118 -7v-443q2 0 34.5 -7.5zM369 850q-10 -16 -35.5 -38t-63.5 -46q-38 24 -63.5 46t-35.5 38l35 20q16 -41 64 -86q48 45 64 86z" />
    <glyph glyph-name="Sacute" unicode="&#x15a;" horiz-adv-x="641" 
d="M502.5 368.5q43.5 -26.5 71 -67t27.5 -100.5q0 -66 -38 -115t-102.5 -75.5t-142.5 -26.5q-82 0 -154.5 35.5t-123.5 97.5v67h5q39 -83 110.5 -133.5t162.5 -50.5q72 0 126.5 24t85 66.5t30.5 97.5q0 54 -25 89t-67.5 58.5t-119.5 54.5q-108 44 -170 89t-62 105
q0 57 53.5 93.5t148.5 36.5q71 0 134 -26q39 -14 76 -21h10q1 -9 1 -28l-1 -35h-7q-2 7 -10 15l-7 7q-3 3 -6.5 5.5t-7.5 5.5q-77 63 -182 63q-68 0 -115 -28t-47 -75q0 -37 26 -65t64.5 -47.5t103.5 -44.5l39 -16q70 -29 113.5 -55.5zM376 870q-10 -27 -28 -51.5t-36 -42.5
l10 -10q38 24 66 52t43 52h-55z" />
    <glyph glyph-name="sacute" unicode="&#x15b;" 
d="M502.5 368.5q43.5 -26.5 71 -67t27.5 -100.5q0 -66 -38 -115t-102.5 -75.5t-142.5 -26.5q-82 0 -154.5 35.5t-123.5 97.5v67h5q39 -83 110.5 -133.5t162.5 -50.5q72 0 126.5 24t85 66.5t30.5 97.5q0 54 -25 89t-67.5 58.5t-119.5 54.5q-108 44 -170 89t-62 105
q0 57 53.5 93.5t148.5 36.5q71 0 134 -26q39 -14 76 -21h10q1 -9 1 -28l-1 -35h-7q-2 7 -10 15l-7 7q-3 3 -6.5 5.5t-7.5 5.5q-77 63 -182 63q-68 0 -115 -28t-47 -75q0 -37 26 -65t64.5 -47.5t103.5 -44.5l39 -16q70 -29 113.5 -55.5zM369 870q-10 -27 -28 -51.5t-36 -42.5
l10 -10q38 24 66 52t43 52h-55z" />
    <glyph glyph-name="Scedilla" unicode="&#x15e;" horiz-adv-x="641" 
d="M566.5 91.5q-34.5 -47.5 -93.5 -75t-131 -31.5l-15 -39l17 1q13 0 25 -8.5t12 -25.5q0 -42 -53 -42q-17 0 -42 5v14q28 -5 41 -5q33 0 33 17t-28 17q-9 0 -23 -2l-12 -2l28 69h-7q-82 0 -154.5 35.5t-123.5 97.5v67h5q39 -83 110.5 -133.5t162.5 -50.5q72 0 126.5 24
t85 66.5t30.5 97.5q0 54 -25 89t-67.5 58.5t-119.5 54.5q-108 44 -170 89t-62 105q0 57 53.5 93.5t148.5 36.5q71 0 134 -26q39 -14 76 -21h10q1 -9 1 -28l-1 -35h-7q-2 7 -10 15l-7 7q-3 3 -6.5 5.5t-7.5 5.5q-77 63 -182 63q-68 0 -115 -28t-47 -75q0 -37 26 -65
t64.5 -47.5t103.5 -44.5l39 -16q70 -29 113.5 -55.5t71 -67t27.5 -100.5q0 -62 -34.5 -109.5z" />
    <glyph glyph-name="scedilla" unicode="&#x15f;" 
d="M564 87.5q-37 -48.5 -100 -75.5t-139 -28l-15 -38l17 1q13 0 25 -8.5t12 -25.5q0 -42 -53 -42q-17 0 -42 5v14q28 -5 41 -5q33 0 33 17t-28 17q-9 0 -23 -2l-12 -2l28 69q-79 2 -149 37.5t-119 95.5v67h5q39 -83 110.5 -133.5t162.5 -50.5q72 0 126.5 24t85 66.5
t30.5 97.5q0 54 -25 89t-67.5 58.5t-119.5 54.5q-108 44 -170 89t-62 105q0 57 53.5 93.5t148.5 36.5q71 0 134 -26q39 -14 76 -21h10q1 -9 1 -28l-1 -35h-7q-2 7 -10 15l-7 7q-3 3 -6.5 5.5t-7.5 5.5q-77 63 -182 63q-68 0 -115 -28t-47 -75q0 -37 26 -65t64.5 -47.5
t103.5 -44.5l39 -16q70 -29 113.5 -55.5t71 -67t27.5 -100.5q0 -65 -37 -113.5z" />
    <glyph glyph-name="Scaron" unicode="&#x160;" horiz-adv-x="641" 
d="M502.5 368.5q43.5 -26.5 71 -67t27.5 -100.5q0 -66 -38 -115t-102.5 -75.5t-142.5 -26.5q-82 0 -154.5 35.5t-123.5 97.5v67h5q39 -83 110.5 -133.5t162.5 -50.5q72 0 126.5 24t85 66.5t30.5 97.5q0 54 -25 89t-67.5 58.5t-119.5 54.5q-108 44 -170 89t-62 105
q0 57 53.5 93.5t148.5 36.5q71 0 134 -26q39 -14 76 -21h10q1 -9 1 -28l-1 -35h-7q-2 7 -10 15l-7 7q-3 3 -6.5 5.5t-7.5 5.5q-77 63 -182 63q-68 0 -115 -28t-47 -75q0 -37 26 -65t64.5 -47.5t103.5 -44.5l39 -16q70 -29 113.5 -55.5zM434 850q-10 -16 -35.5 -38t-63.5 -46
q-38 24 -63.5 46t-35.5 38l35 20q16 -41 64 -86q48 45 64 86z" />
    <glyph glyph-name="scaron" unicode="&#x161;" 
d="M502.5 368.5q43.5 -26.5 71 -67t27.5 -100.5q0 -66 -38 -115t-102.5 -75.5t-142.5 -26.5q-82 0 -154.5 35.5t-123.5 97.5v67h5q39 -83 110.5 -133.5t162.5 -50.5q72 0 126.5 24t85 66.5t30.5 97.5q0 54 -25 89t-67.5 58.5t-119.5 54.5q-108 44 -170 89t-62 105
q0 57 53.5 93.5t148.5 36.5q71 0 134 -26q39 -14 76 -21h10q1 -9 1 -28l-1 -35h-7q-2 7 -10 15l-7 7q-3 3 -6.5 5.5t-7.5 5.5q-77 63 -182 63q-68 0 -115 -28t-47 -75q0 -37 26 -65t64.5 -47.5t103.5 -44.5l39 -16q70 -29 113.5 -55.5zM441 850q-10 -16 -35.5 -38t-63.5 -46
q-38 24 -63.5 46t-35.5 38l35 20q16 -41 64 -86q48 45 64 86z" />
    <glyph glyph-name="uni0162" unicode="&#x162;" horiz-adv-x="669" 
d="M629 700v-43h-4q-5 14 -44 20t-86 6h-144v-550q0 -56 3 -90t16 -39v-4h-81v4q13 5 16.5 39t3.5 90v550h-134q-47 0 -86.5 -6t-44.5 -20h-4v43h14h561h14zM364 -61.5q12 -8.5 12 -25.5q0 -42 -53 -42q-17 0 -42 5v14q27 -5 41 -5q33 0 33 17t-28 17q-9 0 -23 -2l-12 -2
l34 85h17l-21 -54l17 1q13 0 25 -8.5z" />
    <glyph glyph-name="uni0163" unicode="&#x163;" 
d="M629 700v-43h-4q-5 14 -44 20t-86 6h-144v-550q0 -56 3 -90t16 -39v-4h-81v4q13 5 16.5 39t3.5 90v550h-134q-47 0 -86.5 -6t-44.5 -20h-4v43h14h561h14zM367 -61.5q12 -8.5 12 -25.5q0 -42 -53 -42q-17 0 -42 5v14q27 -5 41 -5q33 0 33 17t-28 17q-9 0 -23 -2l-12 -2
l34 85h17l-21 -54l17 1q13 0 25 -8.5z" />
    <glyph glyph-name="Tcaron" unicode="&#x164;" horiz-adv-x="669" 
d="M629 700v-43h-4q-5 14 -44 20t-86 6h-144v-550q0 -56 3 -90t16 -39v-4h-81v4q13 5 16.5 39t3.5 90v550h-134q-47 0 -86.5 -6t-44.5 -20h-4v43h14h561h14zM434 850q-10 -16 -35.5 -38t-63.5 -46q-38 24 -63.5 46t-35.5 38l35 20q16 -41 64 -86q48 45 64 86z" />
    <glyph glyph-name="tcaron" unicode="&#x165;" 
d="M629 700v-43h-4q-5 14 -44 20t-86 6h-144v-550q0 -56 3 -90t16 -39v-4h-81v4q13 5 16.5 39t3.5 90v550h-134q-47 0 -86.5 -6t-44.5 -20h-4v43h14h561h14zM430 850q-10 -16 -35.5 -38t-63.5 -46q-38 24 -63.5 46t-35.5 38l35 20q16 -41 64 -86q48 45 64 86z" />
    <glyph glyph-name="Tbar" unicode="&#x166;" horiz-adv-x="669" 
d="M629 700v-43h-4q-5 14 -44 20t-86 6h-144v-385h46v-20h-46v-145q0 -56 3 -90t16 -39v-4h-81v4q13 5 16.5 39t3.5 90v145h-46v20h46v385h-134q-47 0 -86.5 -6t-44.5 -20h-4v43h14h561h14z" />
    <glyph glyph-name="tbar" unicode="&#x167;" horiz-adv-x="669" 
d="M629 700v-43h-4q-5 14 -44 20t-86 6h-144v-385h46v-20h-46v-145q0 -56 3 -90t16 -39v-4h-81v4q13 5 16.5 39t3.5 90v145h-46v20h46v385h-134q-47 0 -86.5 -6t-44.5 -20h-4v43h14h561h14z" />
    <glyph glyph-name="Umacron" unicode="&#x16a;" horiz-adv-x="658" 
d="M578 133q0 -56 3.5 -90t16.5 -39v-4h-81v4q14 5 18 63q-33 -30 -85 -54.5t-124 -24.5q-133 0 -190 62t-57 181v334v1q0 56 -3.5 90.5t-15.5 38.5v5h81v-5q-13 -4 -16.5 -38.5t-3.5 -90.5v-1v-334q0 -74 16 -124t61 -79.5t128 -29.5q63 0 109 23t69.5 47t31.5 37v28v432v1
q0 56 -3.5 90.5t-15.5 38.5v5h81v-5q-13 -4 -16.5 -38.5t-3.5 -90.5v-1v-432zM410 798h-134v30h134v-30z" />
    <glyph glyph-name="umacron" unicode="&#x16b;" 
d="M578 133q0 -56 3.5 -90t16.5 -39v-4h-81v4q14 5 18 63q-33 -30 -85 -54.5t-124 -24.5q-133 0 -190 62t-57 181v334v1q0 56 -3.5 90.5t-15.5 38.5v5h81v-5q-13 -4 -16.5 -38.5t-3.5 -90.5v-1v-334q0 -74 16 -124t61 -79.5t128 -29.5q63 0 109 23t69.5 47t31.5 37v28v432v1
q0 56 -3.5 90.5t-15.5 38.5v5h81v-5q-13 -4 -16.5 -38.5t-3.5 -90.5v-1v-432zM400 798h-134v30h134v-30z" />
    <glyph glyph-name="Uring" unicode="&#x16e;" horiz-adv-x="658" 
d="M578 133q0 -56 3.5 -90t16.5 -39v-4h-81v4q14 5 18 63q-33 -30 -85 -54.5t-124 -24.5q-133 0 -190 62t-57 181v334v1q0 56 -3.5 90.5t-15.5 38.5v5h81v-5q-13 -4 -16.5 -38.5t-3.5 -90.5v-1v-334q0 -74 16 -124t61 -79.5t128 -29.5q63 0 109 23t69.5 47t31.5 37v28v432v1
q0 56 -3.5 90.5t-15.5 38.5v5h81v-5q-13 -4 -16.5 -38.5t-3.5 -90.5v-1v-432zM301.5 782q-14.5 15 -14.5 37t15 36.5t37 14.5t36.5 -14.5t14.5 -36.5t-14.5 -37t-36.5 -15q-23 0 -37.5 15zM362 795.5q9 9.5 9 23.5t-9.5 23t-22.5 9q-14 0 -23.5 -9t-9.5 -23t9.5 -23.5
t23.5 -9.5t23 9.5z" />
    <glyph glyph-name="uring" unicode="&#x16f;" 
d="M578 133q0 -56 3.5 -90t16.5 -39v-4h-81v4q14 5 18 63q-33 -30 -85 -54.5t-124 -24.5q-133 0 -190 62t-57 181v334v1q0 56 -3.5 90.5t-15.5 38.5v5h81v-5q-13 -4 -16.5 -38.5t-3.5 -90.5v-1v-334q0 -74 16 -124t61 -79.5t128 -29.5q63 0 109 23t69.5 47t31.5 37v28v432v1
q0 56 -3.5 90.5t-15.5 38.5v5h81v-5q-13 -4 -16.5 -38.5t-3.5 -90.5v-1v-432zM297.5 782q-14.5 15 -14.5 37t15 36.5t37 14.5t36.5 -14.5t14.5 -36.5t-14.5 -37t-36.5 -15q-23 0 -37.5 15zM358 795.5q9 9.5 9 23.5t-9.5 23t-22.5 9q-14 0 -23.5 -9t-9.5 -23t9.5 -23.5
t23.5 -9.5t23 9.5z" />
    <glyph glyph-name="Uhungarumlaut" unicode="&#x170;" horiz-adv-x="658" 
d="M578 133q0 -56 3.5 -90t16.5 -39v-4h-81v4q14 5 18 63q-33 -30 -85 -54.5t-124 -24.5q-133 0 -190 62t-57 181v334v1q0 56 -3.5 90.5t-15.5 38.5v5h81v-5q-13 -4 -16.5 -38.5t-3.5 -90.5v-1v-334q0 -74 16 -124t61 -79.5t128 -29.5q63 0 109 23t69.5 47t31.5 37v28v432v1
q0 56 -3.5 90.5t-15.5 38.5v5h81v-5q-13 -4 -16.5 -38.5t-3.5 -90.5v-1v-432zM351 870h23l-77 -104h-23zM430 870h23l-77 -104h-23z" />
    <glyph glyph-name="uhungarumlaut" unicode="&#x171;" 
d="M578 133q0 -56 3.5 -90t16.5 -39v-4h-81v4q14 5 18 63q-33 -30 -85 -54.5t-124 -24.5q-133 0 -190 62t-57 181v334v1q0 56 -3.5 90.5t-15.5 38.5v5h81v-5q-13 -4 -16.5 -38.5t-3.5 -90.5v-1v-334q0 -74 16 -124t61 -79.5t128 -29.5q63 0 109 23t69.5 47t31.5 37v28v432v1
q0 56 -3.5 90.5t-15.5 38.5v5h81v-5q-13 -4 -16.5 -38.5t-3.5 -90.5v-1v-432zM348 870h23l-77 -104h-23zM427 870h23l-77 -104h-23z" />
    <glyph glyph-name="Uogonek" unicode="&#x172;" horiz-adv-x="658" 
d="M578 133q0 -56 3.5 -90t16.5 -39v-4h-16q-39 -28 -39 -60q0 -19 10 -31t31 -12v-13q-32 0 -53.5 14t-21.5 40q0 34 47 62h-39v4q14 5 18 63q-33 -30 -85 -54.5t-124 -24.5q-133 0 -190 62t-57 181v334v1q0 56 -3.5 90.5t-15.5 38.5v5h81v-5q-13 -4 -16.5 -38.5
t-3.5 -90.5v-1v-334q0 -74 16 -124t61 -79.5t128 -29.5q63 0 109 23t69.5 47t31.5 37v28v432v1q0 56 -3.5 90.5t-15.5 38.5v5h81v-5q-13 -4 -16.5 -38.5t-3.5 -90.5v-1v-432z" />
    <glyph glyph-name="uogonek" unicode="&#x173;" 
d="M578 133q0 -56 3.5 -90t16.5 -39v-4h-15q-39 -28 -39 -60q0 -19 10 -31t31 -12v-13q-32 0 -53.5 14t-21.5 40q0 34 47 62h-40v4q14 5 18 63q-33 -30 -85 -54.5t-124 -24.5q-133 0 -190 62t-57 181v334v1q0 56 -3.5 90.5t-15.5 38.5v5h81v-5q-13 -4 -16.5 -38.5
t-3.5 -90.5v-1v-334q0 -74 16 -124t61 -79.5t128 -29.5q63 0 109 23t69.5 47t31.5 37v28v432v1q0 56 -3.5 90.5t-15.5 38.5v5h81v-5q-13 -4 -16.5 -38.5t-3.5 -90.5v-1v-432z" />
    <glyph glyph-name="Wcircumflex" unicode="&#x174;" horiz-adv-x="977" 
d="M937 695q-15 -5 -39 -58l-266 -658h-13l-131 320l-129 -320h-13l-275 675q-19 37 -31 41v5h94v-5q-12 -3 -12 -21q0 -15 7 -37t15.5 -43t11.5 -29l205 -528l118 293l-123 304q-12 27 -21.5 42.5t-18.5 18.5v5h94v-5q-11 -3 -11 -21q0 -20 16 -63l85 -220l94 237
q7 26 7 40q0 22 -13 27v5h70v-5q-15 -4 -33 -44l-116 -292l125 -322l231 568q15 43 15 64q0 20 -13 26v5h70v-5zM552.5 824q25.5 -22 35.5 -38l-35 -20q-16 41 -64 86q-48 -45 -64 -86l-35 20q10 16 35.5 38t63.5 46q38 -24 63.5 -46z" />
    <glyph glyph-name="wcircumflex" unicode="&#x175;" 
d="M937 695q-15 -5 -39 -58l-266 -658h-13l-131 320l-129 -320h-13l-275 675q-19 37 -31 41v5h94v-5q-12 -3 -12 -21q0 -15 7 -37t15.5 -43t11.5 -29l205 -528l118 293l-123 304q-12 27 -21.5 42.5t-18.5 18.5v5h94v-5q-11 -3 -11 -21q0 -20 16 -63l85 -220l94 237
q7 26 7 40q0 22 -13 27v5h70v-5q-15 -4 -33 -44l-116 -292l125 -322l231 568q15 43 15 64q0 20 -13 26v5h70v-5zM566.5 824q25.5 -22 35.5 -38l-35 -20q-16 41 -64 86q-48 -45 -64 -86l-35 20q10 16 35.5 38t63.5 46q38 -24 63.5 -46z" />
    <glyph glyph-name="Ycircumflex" unicode="&#x176;" horiz-adv-x="660" 
d="M620 695q-16 -5 -39 -50l-270 -562q-16 -37 -16 -56q0 -17 12 -23v-4h-70v4q17 6 44 61l58 122l-246 449q-33 53 -53 59v5h95l-1 -5q-8 -1 -8 -12t10 -33l42 -75l3 -6l182 -332l186 388q13 31 13 48t-12 22l-1 5h71v-5zM424.5 824q25.5 -22 35.5 -38l-35 -20
q-16 41 -64 86q-48 -45 -64 -86l-35 20q10 16 35.5 38t63.5 46q38 -24 63.5 -46z" />
    <glyph glyph-name="ycircumflex" unicode="&#x177;" 
d="M620 695q-16 -5 -39 -50l-270 -562q-16 -37 -16 -56q0 -17 12 -23v-4h-70v4q17 6 44 61l58 122l-246 449q-33 53 -53 59v5h95l-1 -5q-8 -1 -8 -12t10 -33l42 -75l3 -6l182 -332l186 388q13 31 13 48t-12 22l-1 5h71v-5zM422.5 824q25.5 -22 35.5 -38l-35 -20
q-16 41 -64 86q-48 -45 -64 -86l-35 20q10 16 35.5 38t63.5 46q38 -24 63.5 -46z" />
    <glyph glyph-name="Ydieresis" unicode="&#x178;" horiz-adv-x="660" 
d="M620 695q-16 -5 -39 -50l-270 -562q-16 -37 -16 -56q0 -17 12 -23v-4h-70v4q17 6 44 61l58 122l-246 449q-33 53 -53 59v5h95l-1 -5q-8 -1 -8 -12t10 -33l42 -75l3 -6l182 -332l186 388q13 31 13 48t-12 22l-1 5h71v-5zM266.5 795.5q-9.5 9.5 -9.5 23.5t9.5 23t23.5 9
q13 0 22.5 -9t9.5 -23t-9 -23.5t-23 -9.5t-23.5 9.5zM385.5 795.5q-9.5 9.5 -9.5 23.5t9.5 23t23.5 9q13 0 22.5 -9t9.5 -23t-9 -23.5t-23 -9.5t-23.5 9.5z" />
    <glyph glyph-name="Zacute" unicode="&#x179;" horiz-adv-x="624" 
d="M522.5 25.5q41.5 9.5 46.5 23.5h4v-49h-6h-128h-399l481 683h-297q-42 0 -83.5 -9.5t-46.5 -22.5h-4v49h6h128h360l-483 -684h338q42 0 83.5 9.5zM381 870q-10 -27 -28 -51.5t-36 -42.5l10 -10q38 24 66 52t43 52h-55z" />
    <glyph glyph-name="zacute" unicode="&#x17a;" 
d="M522.5 25.5q41.5 9.5 46.5 23.5h4v-49h-6h-128h-399l481 683h-297q-42 0 -83.5 -9.5t-46.5 -22.5h-4v49h6h128h360l-483 -684h338q42 0 83.5 9.5zM392 870q-10 -27 -28 -51.5t-36 -42.5l10 -10q38 24 66 52t43 52h-55z" />
    <glyph glyph-name="Zdotaccent" unicode="&#x17b;" horiz-adv-x="624" 
d="M522.5 25.5q41.5 9.5 46.5 23.5h4v-49h-6h-128h-399l481 683h-297q-42 0 -83.5 -9.5t-46.5 -22.5h-4v49h6h128h360l-483 -684h338q42 0 83.5 9.5zM322.5 795.5q-9.5 9.5 -9.5 23.5t9.5 23t23.5 9q13 0 22.5 -9t9.5 -23t-9 -23.5t-23 -9.5t-23.5 9.5z" />
    <glyph glyph-name="zdotaccent" unicode="&#x17c;" 
d="M522.5 25.5q41.5 9.5 46.5 23.5h4v-49h-6h-128h-399l481 683h-297q-42 0 -83.5 -9.5t-46.5 -22.5h-4v49h6h128h360l-483 -684h338q42 0 83.5 9.5zM328.5 795.5q-9.5 9.5 -9.5 23.5t9.5 23t23.5 9q13 0 22.5 -9t9.5 -23t-9 -23.5t-23 -9.5t-23.5 9.5z" />
    <glyph glyph-name="Zcaron" unicode="&#x17d;" horiz-adv-x="624" 
d="M522.5 25.5q41.5 9.5 46.5 23.5h4v-49h-6h-128h-399l481 683h-297q-42 0 -83.5 -9.5t-46.5 -22.5h-4v49h6h128h360l-483 -684h338q42 0 83.5 9.5zM472 850q-10 -16 -35.5 -38t-63.5 -46q-38 24 -63.5 46t-35.5 38l35 20q16 -41 64 -86q48 45 64 86z" />
    <glyph glyph-name="zcaron" unicode="&#x17e;" 
d="M522.5 25.5q41.5 9.5 46.5 23.5h4v-49h-6h-128h-399l481 683h-297q-42 0 -83.5 -9.5t-46.5 -22.5h-4v49h6h128h360l-483 -684h338q42 0 83.5 9.5zM469 850q-10 -16 -35.5 -38t-63.5 -46q-38 24 -63.5 46t-35.5 38l35 20q16 -41 64 -86q48 45 64 86z" />
    <glyph glyph-name="gravecomb" unicode="&#x300;" horiz-adv-x="0" 
d="M-76 818q28 -28 66 -52l10 10q-18 18 -36 42.5t-28 51.5h-55q15 -24 43 -52z" />
    <glyph glyph-name="acutecomb" unicode="&#x301;" horiz-adv-x="0" 
d="M-55 870q-10 -27 -28 -51.5t-36 -42.5l10 -10q38 24 66 52t43 52h-55z" />
    <glyph glyph-name="uni0302" unicode="&#x302;" horiz-adv-x="0" 
d="M-35.5 824q25.5 -22 35.5 -38l-35 -20q-16 41 -64 86q-48 -45 -64 -86l-35 20q10 16 35.5 38t63.5 46q38 -24 63.5 -46z" />
    <glyph glyph-name="tildecomb" unicode="&#x303;" horiz-adv-x="0" 
d="M0 848q0 -27 -12 -45t-34 -18q-10 0 -18 4.5t-22 15.5q-15 10 -23 14.5t-17 4.5q-18 0 -26 -11.5t-9 -27.5h-11q0 27 12.5 45t33.5 18q11 0 19.5 -5t24.5 -16q23 -19 36 -19q18 0 26 12.5t8 27.5h12z" />
    <glyph glyph-name="uni0304" unicode="&#x304;" horiz-adv-x="0" 
d="M0 798h-134v30h134v-30z" />
    <glyph glyph-name="uni0306" unicode="&#x306;" horiz-adv-x="0" 
d="M-133 778.5q-22 10.5 -37 29t-15 42.5h31q0 -32 18.5 -49t43.5 -17t42 17t17 49h33q0 -36 -29.5 -59t-62.5 -23q-19 0 -41 10.5z" />
    <glyph glyph-name="uni0307" unicode="&#x307;" horiz-adv-x="0" 
d="M-55.5 795.5q-9.5 9.5 -9.5 23.5t9.5 23t23.5 9q13 0 22.5 -9t9.5 -23t-9 -23.5t-23 -9.5t-23.5 9.5z" />
    <glyph glyph-name="uni0308" unicode="&#x308;" horiz-adv-x="0" 
d="M-174.5 795.5q-9.5 9.5 -9.5 23.5t9.5 23t23.5 9q13 0 22.5 -9t9.5 -23t-9 -23.5t-23 -9.5t-23.5 9.5zM-55.5 795.5q-9.5 9.5 -9.5 23.5t9.5 23t23.5 9q13 0 22.5 -9t9.5 -23t-9 -23.5t-23 -9.5t-23.5 9.5z" />
    <glyph glyph-name="uni030A" unicode="&#x30a;" horiz-adv-x="0" 
d="M-88.5 782q-14.5 15 -14.5 37t15 36.5t37 14.5t36.5 -14.5t14.5 -36.5t-14.5 -37t-36.5 -15q-23 0 -37.5 15zM-28 795.5q9 9.5 9 23.5t-9.5 23t-22.5 9q-14 0 -23.5 -9t-9.5 -23t9.5 -23.5t23.5 -9.5t23 9.5z" />
    <glyph glyph-name="uni030B" unicode="&#x30b;" horiz-adv-x="0" 
d="M-102 870h23l-77 -104h-23zM-23 870h23l-77 -104h-23z" />
    <glyph glyph-name="uni030C" unicode="&#x30c;" horiz-adv-x="0" 
d="M0 850q-10 -16 -35.5 -38t-63.5 -46q-38 24 -63.5 46t-35.5 38l35 20q16 -41 64 -86q48 45 64 86z" />
    <glyph glyph-name="uni0312" unicode="&#x312;" horiz-adv-x="0" 
d="M-6 806q6 -7 6 -16q0 -10 -7.5 -17t-18.5 -6q-3 0 -7 2q-17 6 -17 28q0 24 9 36.5t32 34.5l5 -6q-25 -23 -29 -50q6 2 11 2q10 -1 16 -8z" />
    <glyph glyph-name="uni0326" unicode="&#x326;" horiz-adv-x="0" 
d="M-38 -51h38l-63 -141h-12z" />
    <glyph glyph-name="uni0327" unicode="&#x327;" horiz-adv-x="0" 
d="M-12 -61.5q12 -8.5 12 -25.5q0 -42 -53 -42q-17 0 -42 5v14q27 -5 41 -5q33 0 33 17t-28 17q-9 0 -23 -2l-12 -2l34 85h17l-21 -54l17 1q13 0 25 -8.5z" />
    <glyph glyph-name="uni0328" unicode="&#x328;" horiz-adv-x="0" 
d="M0 -116q-32 0 -53.5 14t-21.5 40q0 40 66 72h9v-9q-17 -11 -29 -27t-12 -34q0 -19 10 -31t31 -12v-13z" />
    <glyph glyph-name="Wgrave" unicode="&#x1e80;" horiz-adv-x="977" 
d="M937 695q-15 -5 -39 -58l-266 -658h-13l-131 320l-129 -320h-13l-275 675q-19 37 -31 41v5h94v-5q-12 -3 -12 -21q0 -15 7 -37t15.5 -43t11.5 -29l205 -528l118 293l-123 304q-12 27 -21.5 42.5t-18.5 18.5v5h94v-5q-11 -3 -11 -21q0 -20 16 -63l85 -220l94 237
q7 26 7 40q0 22 -13 27v5h70v-5q-15 -4 -33 -44l-116 -292l125 -322l231 568q15 43 15 64q0 20 -13 26v5h70v-5zM472 818q28 -28 66 -52l10 10q-18 18 -36 42.5t-28 51.5h-55q15 -24 43 -52z" />
    <glyph glyph-name="wgrave" unicode="&#x1e81;" 
d="M937 695q-15 -5 -39 -58l-266 -658h-13l-131 320l-129 -320h-13l-275 675q-19 37 -31 41v5h94v-5q-12 -3 -12 -21q0 -15 7 -37t15.5 -43t11.5 -29l205 -528l118 293l-123 304q-12 27 -21.5 42.5t-18.5 18.5v5h94v-5q-11 -3 -11 -21q0 -20 16 -63l85 -220l94 237
q7 26 7 40q0 22 -13 27v5h70v-5q-15 -4 -33 -44l-116 -292l125 -322l231 568q15 43 15 64q0 20 -13 26v5h70v-5zM468 818q28 -28 66 -52l10 10q-18 18 -36 42.5t-28 51.5h-55q15 -24 43 -52z" />
    <glyph glyph-name="Wacute" unicode="&#x1e82;" horiz-adv-x="977" 
d="M937 695q-15 -5 -39 -58l-266 -658h-13l-131 320l-129 -320h-13l-275 675q-19 37 -31 41v5h94v-5q-12 -3 -12 -21q0 -15 7 -37t15.5 -43t11.5 -29l205 -528l118 293l-123 304q-12 27 -21.5 42.5t-18.5 18.5v5h94v-5q-11 -3 -11 -21q0 -20 16 -63l85 -220l94 237
q7 26 7 40q0 22 -13 27v5h70v-5q-15 -4 -33 -44l-116 -292l125 -322l231 568q15 43 15 64q0 20 -13 26v5h70v-5zM541 870q-10 -27 -28 -51.5t-36 -42.5l10 -10q38 24 66 52t43 52h-55z" />
    <glyph glyph-name="wacute" unicode="&#x1e83;" 
d="M937 695q-15 -5 -39 -58l-266 -658h-13l-131 320l-129 -320h-13l-275 675q-19 37 -31 41v5h94v-5q-12 -3 -12 -21q0 -15 7 -37t15.5 -43t11.5 -29l205 -528l118 293l-123 304q-12 27 -21.5 42.5t-18.5 18.5v5h94v-5q-11 -3 -11 -21q0 -20 16 -63l85 -220l94 237
q7 26 7 40q0 22 -13 27v5h70v-5q-15 -4 -33 -44l-116 -292l125 -322l231 568q15 43 15 64q0 20 -13 26v5h70v-5zM539 870q-10 -27 -28 -51.5t-36 -42.5l10 -10q38 24 66 52t43 52h-55z" />
    <glyph glyph-name="Wdieresis" unicode="&#x1e84;" horiz-adv-x="977" 
d="M937 695q-15 -5 -39 -58l-266 -658h-13l-131 320l-129 -320h-13l-275 675q-19 37 -31 41v5h94v-5q-12 -3 -12 -21q0 -15 7 -37t15.5 -43t11.5 -29l205 -528l118 293l-123 304q-12 27 -21.5 42.5t-18.5 18.5v5h94v-5q-11 -3 -11 -21q0 -20 16 -63l85 -220l94 237
q7 26 7 40q0 22 -13 27v5h70v-5q-15 -4 -33 -44l-116 -292l125 -322l231 568q15 43 15 64q0 20 -13 26v5h70v-5zM406.5 795.5q-9.5 9.5 -9.5 23.5t9.5 23t23.5 9q13 0 22.5 -9t9.5 -23t-9 -23.5t-23 -9.5t-23.5 9.5zM525.5 795.5q-9.5 9.5 -9.5 23.5t9.5 23t23.5 9
q13 0 22.5 -9t9.5 -23t-9 -23.5t-23 -9.5t-23.5 9.5z" />
    <glyph glyph-name="wdieresis" unicode="&#x1e85;" 
d="M937 695q-15 -5 -39 -58l-266 -658h-13l-131 320l-129 -320h-13l-275 675q-19 37 -31 41v5h94v-5q-12 -3 -12 -21q0 -15 7 -37t15.5 -43t11.5 -29l205 -528l118 293l-123 304q-12 27 -21.5 42.5t-18.5 18.5v5h94v-5q-11 -3 -11 -21q0 -20 16 -63l85 -220l94 237
q7 26 7 40q0 22 -13 27v5h70v-5q-15 -4 -33 -44l-116 -292l125 -322l231 568q15 43 15 64q0 20 -13 26v5h70v-5zM413.5 795.5q-9.5 9.5 -9.5 23.5t9.5 23t23.5 9q13 0 22.5 -9t9.5 -23t-9 -23.5t-23 -9.5t-23.5 9.5zM532.5 795.5q-9.5 9.5 -9.5 23.5t9.5 23t23.5 9
q13 0 22.5 -9t9.5 -23t-9 -23.5t-23 -9.5t-23.5 9.5z" />
    <glyph glyph-name="uni1E9E" unicode="&#x1e9e;" horiz-adv-x="1281" 
d="M502.5 368.5q43.5 -26.5 71 -67t27.5 -100.5q0 -66 -38 -115t-102.5 -75.5t-142.5 -26.5q-82 0 -154.5 35.5t-123.5 97.5v67h5q39 -83 110.5 -133.5t162.5 -50.5q72 0 126.5 24t85 66.5t30.5 97.5q0 54 -25 89t-67.5 58.5t-119.5 54.5q-108 44 -170 89t-62 105
q0 57 53.5 93.5t148.5 36.5q71 0 134 -26q39 -14 76 -21h10q1 -9 1 -28l-1 -35h-7q-2 7 -10 15l-7 7q-3 3 -6.5 5.5t-7.5 5.5q-77 63 -182 63q-68 0 -115 -28t-47 -75q0 -37 26 -65t64.5 -47.5t103.5 -44.5l39 -16q70 -29 113.5 -55.5zM1142.5 368.5q43.5 -26.5 71 -67
t27.5 -100.5q0 -66 -38 -115t-102.5 -75.5t-142.5 -26.5q-82 0 -154.5 35.5t-123.5 97.5v67h5q39 -83 110.5 -133.5t162.5 -50.5q72 0 126.5 24t85 66.5t30.5 97.5q0 54 -25 89t-67.5 58.5t-119.5 54.5q-108 44 -170 89t-62 105q0 57 53.5 93.5t148.5 36.5q71 0 134 -26
q39 -14 76 -21h10q1 -9 1 -28l-1 -35h-7q-2 7 -10 15l-7 7q-3 3 -6.5 5.5t-7.5 5.5q-77 63 -182 63q-68 0 -115 -28t-47 -75q0 -37 26 -65t64.5 -47.5t103.5 -44.5l39 -16q70 -29 113.5 -55.5z" />
    <glyph glyph-name="Ygrave" unicode="&#x1ef2;" horiz-adv-x="660" 
d="M620 695q-16 -5 -39 -50l-270 -562q-16 -37 -16 -56q0 -17 12 -23v-4h-70v4q17 6 44 61l58 122l-246 449q-33 53 -53 59v5h95l-1 -5q-8 -1 -8 -12t10 -33l42 -75l3 -6l182 -332l186 388q13 31 13 48t-12 22l-1 5h71v-5zM326 818q28 -28 66 -52l10 10q-18 18 -36 42.5
t-28 51.5h-55q15 -24 43 -52z" />
    <glyph glyph-name="ygrave" unicode="&#x1ef3;" 
d="M620 695q-16 -5 -39 -50l-270 -562q-16 -37 -16 -56q0 -17 12 -23v-4h-70v4q17 6 44 61l58 122l-246 449q-33 53 -53 59v5h95l-1 -5q-8 -1 -8 -12t10 -33l42 -75l3 -6l182 -332l186 388q13 31 13 48t-12 22l-1 5h71v-5zM320 818q28 -28 66 -52l10 10q-18 18 -36 42.5
t-28 51.5h-55q15 -24 43 -52z" />
    <glyph glyph-name="endash" unicode="&#x2013;" horiz-adv-x="530" 
d="M480 270l-430 4v29l430 -4v-29z" />
    <glyph glyph-name="emdash" unicode="&#x2014;" horiz-adv-x="668" 
d="M618 270l-568 4v29l568 -4v-29z" />
    <glyph glyph-name="quoteleft" unicode="&#x2018;" horiz-adv-x="242" 
d="M144.5 597.5q10.5 -11.5 10.5 -27.5q0 -18 -13 -29.5t-31 -9.5q-4 0 -8 2q-15 4 -24 17t-9 32l1 10q3 36 24.5 64t58.5 61l8 -10q-59 -49 -66 -102q10 7 22 5q16 -1 26.5 -12.5z" />
    <glyph glyph-name="quoteright" unicode="&#x2019;" horiz-adv-x="242" 
d="M153 697q9 -13 9 -32l-1 -10q-3 -36 -24.5 -64t-58.5 -61l-8 10q59 49 66 102q-10 -7 -22 -5q-16 1 -26.5 12.5t-10.5 27.5q0 18 13 29.5t31 9.5q4 0 8 -2q15 -4 24 -17z" />
    <glyph glyph-name="quotesinglbase" unicode="&#x201a;" horiz-adv-x="242" 
d="M153 43q9 -13 9 -32l-1 -10q-3 -36 -24.5 -64t-58.5 -61l-8 10q59 49 66 102q-10 -7 -22 -5q-16 1 -26.5 12.5t-10.5 27.5q0 18 13 29.5t31 9.5q4 0 8 -2q15 -4 24 -17z" />
    <glyph glyph-name="quotedblleft" unicode="&#x201c;" horiz-adv-x="358" 
d="M96 605q10 7 22 5q16 -1 26.5 -12.5t10.5 -27.5q0 -18 -13 -29.5t-31 -9.5q-4 0 -8 2q-15 4 -24 17t-9 32l1 10q3 36 24.5 64t58.5 61l8 -10q-59 -49 -66 -102zM260.5 597.5q10.5 -11.5 10.5 -27.5q0 -18 -13 -29.5t-31 -9.5q-4 0 -8 2q-15 4 -24 17t-9 32l1 10
q3 36 24.5 64t58.5 61l8 -10q-59 -49 -66 -102q10 7 22 5q16 -1 26.5 -12.5z" />
    <glyph glyph-name="quotedblright" unicode="&#x201d;" horiz-adv-x="358" 
d="M153 697q9 -13 9 -32l-1 -10q-3 -36 -24.5 -64t-58.5 -61l-8 10q59 49 66 102q-10 -7 -22 -5q-16 1 -26.5 12.5t-10.5 27.5q0 18 13 29.5t31 9.5q4 0 8 -2q15 -4 24 -17zM269 697q9 -13 9 -32l-1 -10q-3 -36 -24.5 -64t-58.5 -61l-8 10q59 49 66 102q-10 -7 -22 -5
q-16 1 -26.5 12.5t-10.5 27.5q0 18 13 29.5t31 9.5q4 0 8 -2q15 -4 24 -17z" />
    <glyph glyph-name="quotedblbase" unicode="&#x201e;" horiz-adv-x="358" 
d="M153 43q9 -13 9 -32l-1 -10q-3 -36 -24.5 -64t-58.5 -61l-8 10q59 49 66 102q-10 -7 -22 -5q-16 1 -26.5 12.5t-10.5 27.5q0 18 13 29.5t31 9.5q4 0 8 -2q15 -4 24 -17zM269 43q9 -13 9 -32l-1 -10q-3 -36 -24.5 -64t-58.5 -61l-8 10q59 49 66 102q-10 -7 -22 -5
q-16 1 -26.5 12.5t-10.5 27.5q0 18 13 29.5t31 9.5q4 0 8 -2q15 -4 24 -17z" />
    <glyph glyph-name="dagger" unicode="&#x2020;" horiz-adv-x="340" 
d="M290 498h-105q-6 -162 -9 -376h-12q-3 215 -10 376h-104v29h103q-5 132 -12 173q11 11 31 11q19 0 27 -11q-7 -46 -12 -173h103v-29z" />
    <glyph glyph-name="bullet" unicode="&#x2022;" horiz-adv-x="287" 
d="M98 365q-18 18 -18 46q0 27 18 45t46 18q27 0 45 -18t18 -45q0 -28 -18 -46t-45 -18q-28 0 -46 18z" />
    <glyph glyph-name="ellipsis" unicode="&#x2026;" horiz-adv-x="567" 
d="M91.5 -4.5q-11.5 11.5 -11.5 28.5t11.5 28t28.5 11t28 -11t11 -28t-11 -28.5t-28 -11.5t-28.5 11.5zM259.5 -4.5q-11.5 11.5 -11.5 28.5t11.5 28t28.5 11t28 -11t11 -28t-11 -28.5t-28 -11.5t-28.5 11.5zM419.5 -4.5q-11.5 11.5 -11.5 28.5t11.5 28t28.5 11t28 -11
t11 -28t-11 -28.5t-28 -11.5t-28.5 11.5z" />
    <glyph glyph-name="guilsinglleft" unicode="&#x2039;" horiz-adv-x="258" 
d="M218 292l-137 -187l-41 35l154 152l-154 152l41 35z" />
    <glyph glyph-name="guilsinglright" unicode="&#x203a;" horiz-adv-x="258" 
d="M64 292l154 -152l-41 -35l-137 187l137 187l41 -35z" />
    <glyph glyph-name="fraction" unicode="&#x2044;" horiz-adv-x="676" 
d="M615 700h21l-575 -700h-21z" />
    <glyph glyph-name="Euro" unicode="&#x20ac;" horiz-adv-x="481" 
d="M283 656q-70 -44 -111 -119t-46 -165h152v-16h-153v-6v-18h153v-16h-152q8 -88 49.5 -160t110.5 -114t155 -42v-16q-92 0 -171.5 44t-129 120t-57.5 168h-43v16h41v18v6h-41v16h42q5 95 54.5 173.5t130 124t174.5 45.5v-15q-88 0 -158 -44z" />
    <glyph glyph-name="trademark" unicode="&#x2122;" horiz-adv-x="471" 
d="M224 666h-77v-216h-31v216h-76v23h184v-23zM425 450h-30v213l-59 -58l-59 58v-213h-31v239h31l59 -40l59 40h30v-239z" />
    <glyph glyph-name="minus" unicode="&#x2212;" horiz-adv-x="405" 
d="M355 272h-305v29h305v-29z" />
    <glyph glyph-name="ampersand.ss01" horiz-adv-x="1014" 
d="M980 -201q44 -40 64 -47v-6h-58q-63 47 -179 159q-74 -82 -172.5 -132.5t-195.5 -50.5q-107 0 -198.5 42.5t-146 121.5t-54.5 182q0 133 85.5 234.5t202.5 159.5q-107 163 -107 251q0 99 54.5 148.5t168.5 49.5q63 0 106.5 -25.5t65 -67t21.5 -89.5q0 -81 -54.5 -145
t-135.5 -89q-7 -3 -12 -3q-8 0 -4 8q88 30 139.5 91t51.5 135q0 45 -20.5 83.5t-61 62t-97.5 23.5q-81 0 -131.5 -43.5t-50.5 -129.5q0 -108 167.5 -324.5t389.5 -442.5q36 49 55.5 102.5t19.5 105.5q0 68 -22 125.5t-65 92t-103 34.5l1 16q67 0 117.5 -31.5t78 -88
t27.5 -127.5q0 -62 -24.5 -125t-68.5 -121l30 -29q72 -70 116 -110zM626 -209q96 50 165 130q-124 122 -247 262.5t-206 263.5q-118 -61 -190 -155.5t-72 -208.5q0 -92 45.5 -170.5t127.5 -125t188 -46.5q93 0 189 50z" />
    </font>
</defs>
</svg>
